<?xml version="1.0" encoding="UTF-8" standalone="no"?>
<!-- Created with Inkscape (http://www.inkscape.org/) -->

<svg
   width="10mm"
   height="10mm"
   viewBox="0 0 10 10"
   version="1.1"
   id="svg5"
   inkscape:version="1.2.2 (732a01da63, 2022-12-09)"
   sodipodi:docname="dices.svg"
   xml:space="preserve"
   xmlns:inkscape="http://www.inkscape.org/namespaces/inkscape"
   xmlns:sodipodi="http://sodipodi.sourceforge.net/DTD/sodipodi-0.dtd"
   xmlns="http://www.w3.org/2000/svg"
   xmlns:svg="http://www.w3.org/2000/svg"><sodipodi:namedview
     id="namedview7"
     pagecolor="#ffffff"
     bordercolor="#000000"
     borderopacity="0.25"
     inkscape:showpageshadow="2"
     inkscape:pageopacity="0.0"
     inkscape:pagecheckerboard="0"
     inkscape:deskcolor="#d1d1d1"
     inkscape:document-units="mm"
     showgrid="false"
     inkscape:zoom="8.4662345"
     inkscape:cx="-12.402208"
     inkscape:cy="26.044636"
     inkscape:window-width="1920"
     inkscape:window-height="1009"
     inkscape:window-x="-8"
     inkscape:window-y="-8"
     inkscape:window-maximized="1"
     inkscape:current-layer="layer1" /><defs
     id="defs2"><inkscape:path-effect
       effect="perspective-envelope"
       up_left_point="1.8,4.76"
       up_right_point="3.96,6.06"
       down_left_point="1.9,7.06"
       down_right_point="3.86,8.46"
       id="path-effect840"
       is_visible="true"
       lpeversion="1"
       deform_type="perspective"
       horizontal_mirror="false"
       vertical_mirror="false"
       overflow_perspective="false" /><inkscape:path-effect
       effect="perspective-envelope"
       up_left_point="11.47,3.29"
       up_right_point="13.241984,2.39"
       down_left_point="11.374723,5.92"
       down_right_point="13.241984,4.72"
       id="path-effect831"
       is_visible="true"
       lpeversion="1"
       deform_type="perspective"
       horizontal_mirror="false"
       vertical_mirror="false"
       overflow_perspective="false" /><inkscape:path-effect
       effect="lattice2"
       gridpoint0="11.374723,2.7910737"
       gridpoint1="13.241984,2.7910737"
       gridpoint2="11.374723,5.6181065"
       gridpoint3="13.241984,5.6181065"
       gridpoint4="11.841538,2.7910737"
       gridpoint5="12.775169,2.7910737"
       gridpoint6="11.841538,5.6181065"
       gridpoint7="12.775169,5.6181065"
       gridpoint8x9="12.308353,2.7910737"
       gridpoint10x11="12.308353,5.6181065"
       gridpoint12="11.374723,3.4978319"
       gridpoint13="13.241984,3.4978319"
       gridpoint14="11.374723,4.9113483"
       gridpoint15="13.241984,4.9113483"
       gridpoint16="11.841538,3.4978319"
       gridpoint17="12.775169,3.4978319"
       gridpoint18="11.841538,4.9113483"
       gridpoint19="12.775169,4.9113483"
       gridpoint20x21="12.308353,3.4978319"
       gridpoint22x23="12.308353,4.9113483"
       gridpoint24x26="11.374723,4.2045901"
       gridpoint25x27="13.241984,4.2045901"
       gridpoint28x30="11.841538,4.2045901"
       gridpoint29x31="12.775169,4.2045901"
       gridpoint32x33x34x35="12.308353,4.2045901"
       id="path-effect829"
       is_visible="true"
       lpeversion="1"
       horizontal_mirror="false"
       vertical_mirror="false"
       perimetral="false"
       live_update="true" /><inkscape:path-effect
       effect="bounding_box"
       id="path-effect815"
       is_visible="true"
       lpeversion="1"
       linkedpath=""
       visualbounds="true" /><inkscape:perspective
       sodipodi:type="inkscape:persp3d"
       inkscape:vp_x="0 : 7.6873818 : 1"
       inkscape:vp_y="-1.8369096e-13 : 1000 : 0"
       inkscape:vp_z="9.9999997 : 7.2186079 : 1"
       inkscape:persp3d-origin="5 : 3.3333333 : 1"
       id="perspective237" /></defs><g
     inkscape:label="Layer 1"
     inkscape:groupmode="layer"
     id="layer1"><g
       aria-label="?"
       id="text2335"
       style="font-size:5.14547px;font-family:'Arial Rounded MT Bold';-inkscape-font-specification:'Arial Rounded MT Bold, ';text-align:center;text-anchor:middle;fill:#ff0000;fill-opacity:0.849894;stroke-width:0.694552;stroke-linecap:square;stroke-linejoin:round;stroke-miterlimit:8;paint-order:stroke fill markers" /><path
       style="fill:#000000;stroke-width:1.28224"
       d="M 6.1346465,8.6191347 C 5.9166636,8.5776627 5.6894599,8.4438075 5.5889529,8.2976398 5.5046531,8.1750424 4.7107046,6.5764753 4.6549599,6.4171024 4.6088119,6.2851657 4.6054269,6.2545593 4.6048706,5.9640344 4.6044531,5.7457292 4.6121781,5.6250299 4.6306873,5.5608223 4.6868524,5.3659928 5.14396,4.2796164 5.2103058,4.1832859 5.3270716,4.013747 5.5316777,3.8384324 5.7198257,3.7467087 5.876029,3.6705589 5.9519221,3.6509758 6.8552477,3.4537284 7.9112359,3.2231469 7.9816127,3.2139626 8.1927584,3.2791785 c 0.1441817,0.044534 0.320523,0.1587807 0.405234,0.2625411 0.080643,0.09878 0.9927706,1.8071224 1.0291212,1.9274635 0.071115,0.2354296 0.077438,0.5285444 0.016487,0.7637821 -0.01624,0.062664 -0.1634348,0.3865569 -0.327103,0.719762 C 8.9925271,7.6122817 8.9346701,7.7005979 8.7050895,7.8860124 8.4447156,8.0962964 8.4032381,8.1111857 7.3428556,8.3750215 6.4354246,8.6008012 6.2428248,8.6397156 6.1346465,8.6191347 Z M 6.8716536,8.1912364 C 6.992011,8.1461725 7.10267,8.0567385 7.1356073,7.9779079 c 0.032011,-0.07661 0.018292,-0.1103986 -0.054594,-0.1344517 -0.072446,-0.02391 -0.2345922,0.014137 -0.3377348,0.079247 -0.088856,0.05609 -0.1870931,0.1676732 -0.1870931,0.2125064 0,0.095354 0.1427278,0.120704 0.3154676,0.056029 z M 6.3715934,7.5862616 C 6.5064139,7.283971 6.6446409,6.9951849 6.6787639,6.9445144 6.8045698,6.7577033 7.0518565,6.5508913 7.2586001,6.4595829 7.3107625,6.4365442 7.7740701,6.3165662 8.2881649,6.1929649 8.8022604,6.0693639 9.2349016,5.9570402 9.2495899,5.9433563 9.3322074,5.86639 9.2149358,5.8861612 8.3050867,6.1025857 7.7917651,6.2246896 7.3216933,6.3290157 7.2604834,6.3344216 7.132775,6.345696 6.9782834,6.3081246 6.8547785,6.2357457 6.6848158,6.1361411 6.6271133,6.0441551 6.1622723,5.131793 5.9204186,4.6570979 5.7126555,4.2687109 5.7005765,4.2687109 c -0.012079,0 -0.027307,0.00865 -0.033836,0.019215 -0.00651,0.010565 0.1915321,0.4250059 0.4401412,0.9209731 0.413385,0.8246887 0.4544389,0.9150727 0.4803506,1.0575447 0.034455,0.1894362 0.023592,0.5107491 -0.022296,0.6594261 -0.017048,0.055234 -0.1373302,0.3384213 -0.267297,0.6293026 -0.1299656,0.290881 -0.2363021,0.540538 -0.2363021,0.5547923 0,0.014255 0.014652,0.025912 0.032566,0.025912 0.025029,0 0.089296,-0.1272037 0.2776932,-0.5496199 z m -0.7696436,0.074286 c 0.1006485,-0.1006484 0.094952,-0.4006349 -0.0098,-0.5163889 -0.050645,-0.05596 -0.10265,-0.036357 -0.1493761,0.056305 -0.069015,0.1368616 -0.05074,0.3564456 0.037806,0.4543118 0.045722,0.050535 0.075206,0.051938 0.121372,0.00579 z m 0.2404665,-0.551568 c 0.061694,-0.033015 0.096404,-0.1274563 0.097484,-0.2652103 0.0015,-0.1920858 -0.085082,-0.3428721 -0.1672276,-0.2912164 -0.1293741,0.081354 -0.1387077,0.4202258 -0.014982,0.5439508 0.03679,0.03679 0.038753,0.03708 0.084728,0.012476 z M 8.9654131,6.7167091 C 9.1346073,6.6339303 9.2338931,6.4908408 9.1679169,6.4248647 9.1166187,6.37357 8.9634967,6.3853236 8.8329083,6.4505803 8.6394965,6.5472297 8.5456712,6.7052152 8.6501397,6.7583336 c 0.059812,0.030413 0.2080331,0.010848 0.3152734,-0.041625 z M 6.1717957,6.4634673 c 0.050893,-0.1121142 0.048592,-0.2929011 -0.00509,-0.3993284 -0.034778,-0.068961 -0.049697,-0.081777 -0.095195,-0.081777 -0.067961,0 -0.1168304,0.076455 -0.1322895,0.2069782 -0.0213,0.1798233 0.052665,0.3520203 0.1511999,0.3520203 0.036357,0 0.053412,-0.016335 0.081359,-0.077894 z M 5.0495862,6.4130654 c 0.038876,-0.05751 0.042728,-0.080607 0.037284,-0.2232028 C 5.0819974,6.0629428 5.0729871,6.0203595 5.0421646,5.979093 4.9574364,5.8656774 4.8506762,5.947982 4.8369843,6.1372746 c -0.00979,0.135371 0.0039,0.2120551 0.051894,0.2907503 0.047371,0.077668 0.1015035,0.072629 0.1607098,-0.01496 z M 7.4301701,5.9924377 C 7.5091459,5.9442822 7.5335214,5.8921462 7.5225531,5.7948311 7.5121029,5.7021031 7.430324,5.6012017 7.3311259,5.5586367 7.2457799,5.5220158 7.1078924,5.5267383 7.0391812,5.5686383 6.9729983,5.6089969 6.931142,5.7110595 6.9499192,5.7863135 6.9968569,5.9744355 7.2684924,6.0910221 7.4301696,5.992441 Z M 5.3096385,5.8592459 C 5.4171803,5.6824082 5.3382221,5.315322 5.2019494,5.3585737 c -0.1593021,0.05056 -0.1361346,0.5596406 0.025467,0.5596406 0.032559,0 0.057037,-0.017556 0.08222,-0.058969 z M 8.933755,5.5964666 c 0.023736,-0.01555 0.056592,-0.056453 0.07301,-0.09089 C 9.1112622,5.2864408 8.7402832,5.0341272 8.522956,5.1765251 8.462058,5.2164301 8.423012,5.3140919 8.438001,5.3890341 c 0.0149,0.074496 0.1400596,0.202437 0.2260714,0.231094 0.07838,0.026115 0.2115447,0.014431 0.2696826,-0.023661 z M 5.541017,5.3360259 C 5.623764,5.2812806 5.6496102,5.0197586 5.5861006,4.8798823 5.5020302,4.694731 5.36154,4.8039389 5.3611636,5.0547319 5.3608505,5.2635867 5.446957,5.3982574 5.5410185,5.3360259 Z M 6.7028088,4.5827079 C 6.8103185,4.5047796 6.8174645,4.3720589 6.7201191,4.2611905 6.6479146,4.1789538 6.5612968,4.140416 6.4486666,4.140416 c -0.077275,0 -0.1034418,0.00933 -0.1563106,0.055752 C 6.20744,4.2707248 6.194202,4.3386931 6.244396,4.4423879 6.3252726,4.6094561 6.5647639,4.682765 6.7028034,4.5827076 Z M 8.1505045,4.2046683 C 8.3694109,4.0914668 8.2387385,3.7850425 7.9553642,3.7470672 7.8017775,3.7264852 7.6602624,3.8427978 7.6809798,3.9725877 7.7110466,4.1609746 7.9789378,4.2933886 8.1505045,4.2046683 Z M 2.8539671,6.9373716 C 2.2848531,6.7568219 0.79742484,6.2590455 0.72953387,6.2264186 0.54378689,6.1371531 0.36477687,5.8847117 0.32253325,5.6524613 0.30505242,5.5563423 0.3131421,5.453639 0.38713036,4.8368734 0.4934809,3.9498604 0.56498738,3.6298731 0.75555504,3.1881835 0.82127221,3.0358643 1.308045,2.0072964 1.4137272,1.7974397 1.5557237,1.5154724 1.8381023,1.3506093 2.129983,1.3792633 2.2654822,1.3925718 4.3809576,2.0661258 4.4924522,2.1314662 4.6757174,2.2388666 4.8301773,2.4860802 4.8464798,2.6980884 4.8532011,2.7858642 4.8276253,2.9656238 4.733701,3.4897787 4.6043966,4.2114055 4.5324632,4.5183742 4.4029997,4.9010207 4.3307057,5.1146971 3.7717273,6.4517495 3.6814803,6.6268657 3.5288947,6.9229429 3.1988473,7.0467855 2.8539641,6.9373716 Z M 2.9932582,6.5523574 C 3.0677052,6.4779104 3.0729291,6.4172819 3.0138767,6.3130251 2.9531585,6.2058309 2.8404961,6.1339233 2.7172418,6.1237021 2.5937246,6.1134695 2.5134451,6.1433892 2.477381,6.2131312 2.441924,6.2817022 2.443812,6.3276163 2.485461,6.4092141 2.550972,6.5375753 2.6786204,6.6127924 2.832891,6.6139414 2.920432,6.614594 2.937626,6.6079814 2.9932594,6.5523584 Z M 3.568046,6.426812 C 3.577314,6.4041316 3.6314214,6.105944 3.6883014,5.7641736 3.842968,4.8348385 3.9484443,4.4874822 4.3774768,3.4945804 4.5374956,3.1242502 4.668421,2.808178 4.668421,2.7921974 c 0,-0.05137 -0.062654,-0.019818 -0.093695,0.04719 C 4.5584464,2.8745319 4.4192519,3.1940246 4.2654125,3.5493691 3.9559777,4.2641118 3.922276,4.31905 3.7376321,4.4097219 3.6482719,4.4536034 3.611375,4.4609667 3.4862758,4.4598879 3.3468494,4.4586818 3.2856838,4.4409683 2.239985,4.0988854 1.6064034,3.8916203 1.1334581,3.7459814 1.1241357,3.7552714 c -0.0089,0.00887 -0.011989,0.026988 -0.00687,0.040266 0.00515,0.013282 0.4866354,0.1803087 1.0700297,0.3711794 0.5833931,0.1908707 1.0979925,0.3653073 1.1435533,0.3876369 0.1086868,0.053268 0.2470936,0.2031576 0.3056015,0.3309557 0.07953,0.1737168 0.075945,0.2584359 -0.039365,0.9302219 -0.056923,0.3316158 -0.099214,0.6140934 -0.093984,0.6277279 0.01446,0.037681 0.046114,0.029664 0.064942,-0.016447 z M 1.2751164,6.0570481 C 1.363114,6.0115428 1.3944343,5.890977 1.3435597,5.7935918 1.2782,5.668486 1.1374959,5.5883141 0.98328703,5.5883141 c -0.0825342,0 -0.10169743,0.00763 -0.15637557,0.062313 -0.0711081,0.071108 -0.0765318,0.1153788 -0.02739,0.2235798 0.0735017,0.1618472 0.32742244,0.2594642 0.47559864,0.1828395 z M 2.1698494,5.6618755 C 2.181672,5.6617289 2.2167262,5.6402746 2.2477431,5.6141769 2.3901026,5.4943884 2.2616468,5.2476897 2.0235287,5.1835709 1.8700113,5.1422329 1.717642,5.2271971 1.717642,5.3541379 c 0,0.158648 0.2361079,0.3476683 0.3940484,0.3154624 0.02016,-0.00411 0.046333,-0.00758 0.058156,-0.00774 z M 3.1599632,5.2225633 C 3.2301499,5.1797676 3.2555188,5.0863106 3.2201385,5.0008895 3.1860271,4.9185318 3.0501943,4.8078295 2.9533305,4.7834388 2.6756141,4.7135087 2.5471174,4.9536548 2.7561118,5.1520173 2.8681004,5.2583092 3.0494013,5.2899785 3.1599656,5.2225628 Z M 4.1703478,4.9319772 c 0.1055786,-0.2304799 0.1726316,-0.5694637 0.108606,-0.549049 -0.06801,0.021687 -0.2153519,0.4335901 -0.2153519,0.6020426 0,0.1214542 0.034736,0.1042101 0.1067459,-0.052994 z M 1.5124551,4.6812879 C 1.5778227,4.6262835 1.5914876,4.5689288 1.5606137,4.4791223 1.5058016,4.3196753 1.3563595,4.2367727 1.1434893,4.2477189 1.070504,4.2514798 0.98453047,4.341856 0.98453047,4.414834 c 0,0.1631792 0.17847393,0.3098387 0.37889653,0.3113552 0.07494,5.661e-4 0.1061804,-0.00886 0.1490296,-0.044902 z M 3.5384465,4.1084865 C 3.6743395,4.0303365 3.6836831,3.8625986 3.5579195,3.7589324 3.343156,3.5819064 3.00059,3.6621244 3.00059,3.8894402 c 0,0.06347 0.011412,0.084922 0.080381,0.1509985 0.044212,0.042359 0.1122514,0.085909 0.1512046,0.096778 0.093131,0.025986 0.2341269,0.012758 0.3062709,-0.02873 z M 2.9339531,3.1804267 C 3.2078587,3.0659814 3.0466162,2.7291741 2.7179215,2.7291741 c -0.1402524,0 -0.2276306,0.042927 -0.2732061,0.134221 -0.028213,0.056513 -0.030177,0.077324 -0.012399,0.1311999 0.023881,0.072361 0.128553,0.1674921 0.2108799,0.1916576 0.08489,0.024917 0.2238392,0.022132 0.2907562,-0.00582 z M 2.365791,2.2457078 C 2.5616647,2.163866 2.5458633,1.9459009 2.3364935,1.8415674 2.1140163,1.7307018 1.8642646,1.820585 1.8642646,2.011519 c 0,0.071715 0.00912,0.090534 0.073615,0.1518852 0.040491,0.038516 0.100282,0.077731 0.1328769,0.087148 0.089296,0.025799 0.2271139,0.023536 0.2950341,-0.00484 z"
       id="path4939" /></g></svg>
