<?xml version="1.0" encoding="UTF-8" standalone="no"?>
<!-- Created with Inkscape (http://www.inkscape.org/) -->

<svg
   width="10mm"
   height="10mm"
   viewBox="0 0 10 10"
   version="1.1"
   id="svg5"
   inkscape:version="1.2.2 (732a01da63, 2022-12-09)"
   sodipodi:docname="generate.svg"
   xml:space="preserve"
   xmlns:inkscape="http://www.inkscape.org/namespaces/inkscape"
   xmlns:sodipodi="http://sodipodi.sourceforge.net/DTD/sodipodi-0.dtd"
   xmlns="http://www.w3.org/2000/svg"
   xmlns:svg="http://www.w3.org/2000/svg"><sodipodi:namedview
     id="namedview7"
     pagecolor="#ffffff"
     bordercolor="#000000"
     borderopacity="0.25"
     inkscape:showpageshadow="2"
     inkscape:pageopacity="0.0"
     inkscape:pagecheckerboard="0"
     inkscape:deskcolor="#d1d1d1"
     inkscape:document-units="mm"
     showgrid="false"
     inkscape:zoom="16.932469"
     inkscape:cx="6.9393306"
     inkscape:cy="8.2976676"
     inkscape:window-width="1920"
     inkscape:window-height="1009"
     inkscape:window-x="-8"
     inkscape:window-y="-8"
     inkscape:window-maximized="1"
     inkscape:current-layer="layer1" /><defs
     id="defs2"><marker
       style="overflow:visible"
       id="RoundedArrow"
       refX="0"
       refY="0"
       orient="auto-start-reverse"
       inkscape:stockid="RoundedArrow"
       markerWidth="3.135"
       markerHeight="3.0306199"
       viewBox="0 0 6.1347524 5.9304951"
       inkscape:isstock="true"
       inkscape:collect="always"
       preserveAspectRatio="xMidYMid"><path
         transform="scale(0.7)"
         d="m -0.21114562,-4.1055728 6.42229122,3.21114561 a 1,1 90 0 1 0,1.78885438 L -0.21114562,4.1055728 A 1.236068,1.236068 31.717474 0 1 -2,3 v -6 a 1.236068,1.236068 148.28253 0 1 1.78885438,-1.1055728 z"
         style="fill:context-stroke;fill-rule:evenodd;stroke:none"
         id="path1367" /></marker><inkscape:path-effect
       effect="perspective-envelope"
       up_left_point="1.8,4.76"
       up_right_point="3.96,6.06"
       down_left_point="1.9,7.06"
       down_right_point="3.86,8.46"
       id="path-effect840"
       is_visible="true"
       lpeversion="1"
       deform_type="perspective"
       horizontal_mirror="false"
       vertical_mirror="false"
       overflow_perspective="false" /><inkscape:path-effect
       effect="perspective-envelope"
       up_left_point="11.47,3.29"
       up_right_point="13.241984,2.39"
       down_left_point="11.374723,5.92"
       down_right_point="13.241984,4.72"
       id="path-effect831"
       is_visible="true"
       lpeversion="1"
       deform_type="perspective"
       horizontal_mirror="false"
       vertical_mirror="false"
       overflow_perspective="false" /><inkscape:path-effect
       effect="lattice2"
       gridpoint0="11.374723,2.7910737"
       gridpoint1="13.241984,2.7910737"
       gridpoint2="11.374723,5.6181065"
       gridpoint3="13.241984,5.6181065"
       gridpoint4="11.841538,2.7910737"
       gridpoint5="12.775169,2.7910737"
       gridpoint6="11.841538,5.6181065"
       gridpoint7="12.775169,5.6181065"
       gridpoint8x9="12.308353,2.7910737"
       gridpoint10x11="12.308353,5.6181065"
       gridpoint12="11.374723,3.4978319"
       gridpoint13="13.241984,3.4978319"
       gridpoint14="11.374723,4.9113483"
       gridpoint15="13.241984,4.9113483"
       gridpoint16="11.841538,3.4978319"
       gridpoint17="12.775169,3.4978319"
       gridpoint18="11.841538,4.9113483"
       gridpoint19="12.775169,4.9113483"
       gridpoint20x21="12.308353,3.4978319"
       gridpoint22x23="12.308353,4.9113483"
       gridpoint24x26="11.374723,4.2045901"
       gridpoint25x27="13.241984,4.2045901"
       gridpoint28x30="11.841538,4.2045901"
       gridpoint29x31="12.775169,4.2045901"
       gridpoint32x33x34x35="12.308353,4.2045901"
       id="path-effect829"
       is_visible="true"
       lpeversion="1"
       horizontal_mirror="false"
       vertical_mirror="false"
       perimetral="false"
       live_update="true" /><inkscape:path-effect
       effect="bounding_box"
       id="path-effect815"
       is_visible="true"
       lpeversion="1"
       linkedpath=""
       visualbounds="true" /><inkscape:perspective
       sodipodi:type="inkscape:persp3d"
       inkscape:vp_x="0 : 7.6873818 : 1"
       inkscape:vp_y="-1.8369096e-13 : 1000 : 0"
       inkscape:vp_z="9.9999997 : 7.2186079 : 1"
       inkscape:persp3d-origin="5 : 3.3333333 : 1"
       id="perspective237" /></defs><g
     inkscape:label="Layer 1"
     inkscape:groupmode="layer"
     id="layer1"><g
       aria-label="?"
       id="text2335"
       style="font-size:5.14547px;font-family:'Arial Rounded MT Bold';-inkscape-font-specification:'Arial Rounded MT Bold, ';text-align:center;text-anchor:middle;fill:#ff0000;fill-opacity:0.849894;stroke-width:0.694552;stroke-linecap:square;stroke-linejoin:round;stroke-miterlimit:8;paint-order:stroke fill markers" /><path
       style="fill:none;stroke:#000000;stroke-width:0.4;stroke-linecap:round;stroke-linejoin:round;stroke-miterlimit:8;stroke-dasharray:none;marker-end:url(#RoundedArrow);paint-order:markers fill stroke"
       id="path566"
       sodipodi:type="arc"
       sodipodi:cx="5"
       sodipodi:cy="5.000638"
       sodipodi:rx="4.5"
       sodipodi:ry="4.5"
       sodipodi:start="0"
       sodipodi:end="2.6179939"
       sodipodi:arc-type="arc"
       d="M 9.5,5.000638 A 4.5,4.5 0 0 1 6.1646857,9.3473042 4.5,4.5 0 0 1 1.1028856,7.2506379"
       sodipodi:open="true" /><path
       style="fill:none;stroke:#000000;stroke-width:0.4;stroke-linecap:round;stroke-linejoin:round;stroke-miterlimit:8;stroke-dasharray:none;marker-end:url(#RoundedArrow);paint-order:markers fill stroke"
       id="path1801"
       sodipodi:type="arc"
       sodipodi:cx="5"
       sodipodi:cy="5.000638"
       sodipodi:rx="4.5"
       sodipodi:ry="4.5"
       sodipodi:start="3.1415927"
       sodipodi:end="5.7595865"
       sodipodi:arc-type="arc"
       d="M 0.5,5.000638 A 4.5,4.5 0 0 1 3.8353143,0.65397178 4.5,4.5 0 0 1 8.8971142,2.7506379"
       sodipodi:open="true" /><path
       style="fill:#000000;stroke-width:0.999999"
       d="M 5.8848917,7.8225022 C 5.7148905,7.7901589 5.5376982,7.6857675 5.4593144,7.5717738 5.3935705,7.4761621 4.7743834,6.2294665 4.730909,6.1051743 4.6949189,6.0022791 4.692279,5.9784097 4.6918452,5.7518342 4.6915196,5.5815816 4.6975442,5.4874503 4.7119792,5.4373759 4.7557815,5.2854316 5.112272,4.438185 5.164014,4.3630584 5.2550776,4.2308379 5.4146465,4.094113 5.5613799,4.0225792 5.6832002,3.9631913 5.742388,3.9479187 6.4468764,3.7940888 7.2704238,3.6142622 7.3253095,3.6070995 7.4899785,3.6579603 7.6024234,3.6926915 7.739949,3.7817907 7.8060137,3.8627116 7.8689054,3.939748 8.5802588,5.272056 8.608608,5.365908 8.6640691,5.5495156 8.6690012,5.7781109 8.6214657,5.9615688 8.6088007,6.0104397 8.4940057,6.263038 8.3663636,6.522899 8.1137047,7.0372745 8.0685829,7.1061508 7.8895369,7.2507525 7.6864757,7.4147494 7.6541281,7.4263614 6.8271537,7.6321225 6.1194635,7.8082042 5.9692581,7.8385529 5.8848917,7.8225022 Z M 6.4596711,7.4887915 C 6.5535358,7.453647 6.6398369,7.3838989 6.6655242,7.3224203 6.6904894,7.2626737 6.6797902,7.2363222 6.622948,7.2175636 6.566448,7.1989168 6.4399934,7.2285892 6.3595543,7.2793672 6.2902573,7.323111 6.2136435,7.4101328 6.2136435,7.4450974 c 0,0.074365 0.111311,0.094135 0.2460279,0.043696 z M 6.0696826,7.0169819 C 6.1748269,6.7812305 6.2826277,6.5560111 6.3092397,6.5164941 6.4073536,6.3708032 6.6002083,6.209514 6.7614442,6.1383041 6.8021247,6.1203366 7.1634506,6.0267678 7.5643845,5.9303733 7.9653188,5.8339789 8.3027285,5.7463795 8.3141836,5.7357077 8.3786156,5.675683 8.2871574,5.6911022 7.5775815,5.859888 7.1772506,5.9551148 6.8106495,6.036477 6.762913,6.0406929 6.6633153,6.0494857 6.5428299,6.0201844 6.4465105,5.9637373 6.3139595,5.8860573 6.2689583,5.814319 5.9064366,5.1027831 5.717819,4.7325764 5.555788,4.4296799 5.5463678,4.4296799 c -0.00942,0 -0.021297,0.00674 -0.026388,0.014985 -0.00508,0.00824 0.1493727,0.331455 0.3432588,0.7182514 0.3223919,0.6431609 0.3544092,0.7136498 0.3746173,0.8247613 0.026871,0.1477381 0.018399,0.3983247 -0.017388,0.5142753 C 6.2071719,6.5450289 6.1133664,6.765882 6.0120075,6.9927354 5.9106494,7.2195887 5.8277194,7.4142919 5.8277194,7.4254086 c 0,0.011117 0.011427,0.020209 0.025398,0.020209 0.019519,0 0.069641,-0.099204 0.2165682,-0.4286393 z m -0.6002321,0.057934 c 0.078494,-0.078494 0.074052,-0.3124485 -0.00765,-0.402723 -0.039497,-0.043642 -0.080055,-0.028354 -0.1164959,0.043911 -0.053824,0.1067361 -0.039572,0.277986 0.029484,0.3543102 0.035658,0.039411 0.058652,0.040506 0.094656,0.00451 z M 5.6569863,6.6447577 c 0.048114,-0.025748 0.075184,-0.099401 0.076026,-0.206833 0.00117,-0.1498045 -0.066354,-0.2674003 -0.130418,-0.2271148 -0.1008967,0.063447 -0.1081758,0.327727 -0.011684,0.4242181 0.028692,0.028692 0.030223,0.028918 0.066078,0.00973 z M 8.0925589,6.3388325 C 8.2245106,6.2742748 8.3019419,6.1626816 8.2504882,6.111228 8.2104816,6.0712241 8.0910643,6.0803905 7.9892207,6.1312832 7.838382,6.2066584 7.7652093,6.3298686 7.8466825,6.3712948 c 0.046646,0.023718 0.1622415,0.00846 0.2458764,-0.032462 z M 5.9138637,6.1413335 c 0.03969,-0.087436 0.037896,-0.2284286 -0.00397,-0.3114295 -0.027123,-0.053781 -0.038758,-0.063776 -0.074241,-0.063776 -0.053002,0 -0.091114,0.059626 -0.1031703,0.1614188 -0.016611,0.1402411 0.041072,0.2745347 0.1179183,0.2745347 0.028354,0 0.041655,-0.012739 0.06345,-0.060748 z M 5.0386714,6.1020263 c 0.030319,-0.044851 0.033323,-0.062864 0.029077,-0.1740721 -0.0038,-0.098983 -0.010827,-0.132193 -0.034865,-0.164376 -0.066078,-0.088451 -0.1493385,-0.024263 -0.1600166,0.1233631 -0.00764,0.1055736 0.00304,0.1653782 0.040472,0.2267513 0.036944,0.060572 0.079161,0.056642 0.1253348,-0.011667 z M 6.8952487,5.7739858 c 0.061592,-0.037556 0.080602,-0.078216 0.072048,-0.1541104 -0.00815,-0.072317 -0.071928,-0.1510083 -0.1492908,-0.184204 -0.06656,-0.02856 -0.1740961,-0.024877 -0.2276828,0.0078 -0.051615,0.031475 -0.084258,0.111072 -0.069614,0.1697613 0.036606,0.1467131 0.2484499,0.2376371 0.3745392,0.1607553 z M 5.2414819,5.6701114 c 0.08387,-0.1379127 0.022292,-0.4241971 -0.083985,-0.3904658 -0.124237,0.039431 -0.1061691,0.4364543 0.019861,0.4364543 0.025392,0 0.044482,-0.013692 0.064122,-0.045989 z M 8.0678693,5.4651742 C 8.0863811,5.4530468 8.1120044,5.4211479 8.1248087,5.394291 8.2063043,5.2233907 7.916984,5.0266155 7.7474941,5.1376693 c -0.047493,0.031121 -0.077945,0.107286 -0.066255,0.1657322 0.01162,0.058098 0.1092301,0.1578771 0.1763093,0.1802262 0.061127,0.020367 0.1649801,0.011254 0.2103209,-0.018454 z M 5.42193,5.262061 C 5.486463,5.219366 5.50662,5.0154094 5.45709,4.9063222 5.3915249,4.7619259 5.2819589,4.8470953 5.2816654,5.0426845 5.2814212,5.2055668 5.3485742,5.3105942 5.4219312,5.262061 Z M 6.3279919,4.6745609 c 0.083845,-0.060775 0.089418,-0.1642816 0.0135,-0.250746 -0.056311,-0.064135 -0.1238628,-0.09419 -0.2117012,-0.09419 -0.060266,0 -0.080673,0.00728 -0.121904,0.04348 -0.066225,0.058146 -0.076549,0.1111531 -0.037403,0.192023 0.063074,0.1302937 0.2498496,0.187466 0.3575043,0.109433 z M 7.4570254,4.3797342 C 7.6277468,4.2914502 7.5258376,4.0524751 7.3048388,4.0228588 7.1850591,4.0068073 7.0746939,4.0975175 7.090851,4.1987384 7.1142996,4.3456582 7.3232235,4.4489256 7.4570254,4.3797342 Z M 3.326345,6.5109235 C 2.8825026,6.3701158 1.7224824,5.9819084 1.6695353,5.9564632 1.5246744,5.8868465 1.3850675,5.6899718 1.3521224,5.5088436 1.3384894,5.433882 1.3447984,5.3537854 1.4025006,4.8727803 1.4854416,4.1810138 1.5412083,3.9314611 1.6898288,3.5869948 1.7410805,3.4682036 2.1207064,2.6660408 2.2031262,2.5023771 2.3138669,2.2824756 2.5340892,2.1539016 2.7617221,2.1762484 2.8673956,2.1866274 4.5172192,2.7119209 4.604172,2.7628787 4.7470974,2.8466385 4.8675581,3.0394363 4.8802722,3.2047779 4.885514,3.2732327 4.8655678,3.4134242 4.7923179,3.8222038 4.6914756,4.3849884 4.6353759,4.6243881 4.5344095,4.9228077 4.4780286,5.0894504 4.0420908,6.132195 3.9717087,6.2687652 3.8527098,6.4996708 3.5953113,6.5962536 3.3263427,6.5109235 Z M 3.4349758,6.2106574 c 0.05806,-0.05806 0.062134,-0.1053431 0.01608,-0.1866512 -0.047353,-0.083599 -0.1352165,-0.1396785 -0.2313405,-0.1476499 -0.096329,-0.00798 -0.1589376,0.015354 -0.1870634,0.069744 -0.027652,0.053477 -0.02618,0.089285 0.0063,0.1529218 0.051091,0.1001067 0.1506418,0.1587673 0.2709548,0.1596634 0.068272,5.089e-4 0.081681,-0.00465 0.1250686,-0.048027 z M 3.8832432,6.1127467 C 3.8904711,6.0950586 3.9326686,5.8625071 3.9770283,5.5959661 4.0976502,4.8711933 4.1799094,4.600296 4.5145046,3.8259486 4.6393006,3.5371343 4.7414071,3.2906349 4.7414071,3.2781719 c 0,-0.040063 -0.048863,-0.015456 -0.073071,0.036802 C 4.6556397,3.3423832 4.5470843,3.5915502 4.4271076,3.8686774 4.1857845,4.4260932 4.1595012,4.4689386 4.0155005,4.5396521 3.94581,4.5738745 3.9170348,4.579617 3.8194719,4.5787757 3.7107357,4.577835 3.6630336,4.5640206 2.8475107,4.2972359 2.3533911,4.1355933 1.984549,4.022012 1.9772787,4.0292571 c -0.00694,0.00692 -0.00935,0.021048 -0.00536,0.031403 0.00402,0.010358 0.3795187,0.1406197 0.8344981,0.2894765 0.4549785,0.1488569 0.8563059,0.2848971 0.891838,0.3023115 0.084763,0.041543 0.1927042,0.1584392 0.2383335,0.2581068 0.062024,0.1354788 0.059228,0.2015498 -0.0307,0.7254644 -0.044393,0.2586216 -0.077375,0.4789211 -0.073296,0.4895544 0.011277,0.029387 0.035963,0.023134 0.050648,-0.012827 z M 2.0950259,5.824374 C 2.1636535,5.7888851 2.18808,5.694858 2.1484035,5.6189089 2.0974303,5.521341 1.9876978,5.4588162 1.8674329,5.4588162 c -0.064367,0 -0.079312,0.00595 -0.1219547,0.048597 -0.055456,0.055456 -0.059686,0.089982 -0.021361,0.1743661 0.057323,0.1262219 0.2553512,0.2023518 0.3709113,0.1425935 z M 2.7928132,5.5161855 c 0.00922,-1.143e-4 0.036558,-0.016846 0.060748,-0.037199 C 2.964585,5.3855652 2.8644044,5.193169 2.6787001,5.1431638 2.5589745,5.1109251 2.4401443,5.1771872 2.4401443,5.2761862 c 0,0.1237269 0.1841365,0.2711407 0.3073116,0.2460238 C 2.7631779,5.519 2.7835909,5.5163 2.7928109,5.51618 Z M 3.5649863,5.1735734 C 3.6197237,5.1401977 3.6395085,5.0673122 3.6119159,5.0006937 3.585313,4.9364643 3.4793794,4.8501295 3.4038369,4.8311076 3.1872505,4.7765703 3.0870381,4.9638561 3.2500294,5.1185557 c 0.087338,0.082895 0.2287315,0.1075936 0.3149587,0.055017 z M 4.3529682,4.9469502 c 0.082339,-0.1797475 0.1346325,-0.4441152 0.0847,-0.4281941 -0.05304,0.016913 -0.1679493,0.3381496 -0.1679493,0.4695229 0,0.09472 0.02709,0.081272 0.083249,-0.041329 z M 2.2801225,4.7514418 c 0.050979,-0.042897 0.061636,-0.087627 0.037558,-0.1576656 -0.042747,-0.12435 -0.1592944,-0.1890044 -0.3253083,-0.1804676 -0.05692,0.00293 -0.1239693,0.073416 -0.1239693,0.1303303 0,0.1272607 0.1391888,0.241638 0.295495,0.2428206 0.058444,4.416e-4 0.082808,-0.00691 0.1162257,-0.035018 z M 3.860159,4.3047236 C 3.9661397,4.2437758 3.9734266,4.1129598 3.8753457,4.0321123 3.7078553,3.8940527 3.4406939,3.9566129 3.4406939,4.1338931 c 0,0.049499 0.0089,0.06623 0.062687,0.1177612 0.03448,0.033035 0.087543,0.066999 0.117922,0.075476 0.072631,0.020266 0.1825916,0.00995 0.2388561,-0.022407 z M 3.3887248,3.5809454 c 0.2136143,-0.089254 0.087864,-0.3519243 -0.1684794,-0.3519243 -0.1093805,0 -0.1775253,0.033478 -0.2130688,0.1046767 -0.022003,0.044073 -0.023534,0.060303 -0.00967,0.1023206 0.018624,0.056433 0.1002564,0.1306243 0.1644617,0.1494705 0.066205,0.019432 0.1745684,0.017261 0.2267558,-0.00454 z M 2.9456247,2.8519739 C 3.0983833,2.7881468 3.0860601,2.6181595 2.9227761,2.5367916 2.7492699,2.4503294 2.5544927,2.5204278 2.5544927,2.669334 c 0,0.055929 0.00711,0.070606 0.057411,0.1184527 0.031578,0.030038 0.078208,0.060621 0.1036285,0.067965 0.069641,0.02012 0.1771223,0.018355 0.2300921,-0.00378 z"
       id="path4939" /></g></svg>
