<?xml version="1.0" encoding="UTF-8" standalone="no"?>
<!-- Created with Inkscape (http://www.inkscape.org/) -->

<svg
   width="10mm"
   height="10mm"
   viewBox="0 0 10 10"
   version="1.1"
   id="svg5"
   inkscape:version="1.2.2 (732a01da63, 2022-12-09)"
   sodipodi:docname="generate.svg"
   xml:space="preserve"
   xmlns:inkscape="http://www.inkscape.org/namespaces/inkscape"
   xmlns:sodipodi="http://sodipodi.sourceforge.net/DTD/sodipodi-0.dtd"
   xmlns="http://www.w3.org/2000/svg"
   xmlns:svg="http://www.w3.org/2000/svg"><sodipodi:namedview
     id="namedview7"
     pagecolor="#ffffff"
     bordercolor="#000000"
     borderopacity="0.25"
     inkscape:showpageshadow="2"
     inkscape:pageopacity="0.0"
     inkscape:pagecheckerboard="0"
     inkscape:deskcolor="#d1d1d1"
     inkscape:document-units="mm"
     showgrid="false"
     inkscape:zoom="67.729876"
     inkscape:cx="19.880444"
     inkscape:cy="22.53806"
     inkscape:window-width="1920"
     inkscape:window-height="1009"
     inkscape:window-x="-8"
     inkscape:window-y="-8"
     inkscape:window-maximized="1"
     inkscape:current-layer="layer1" /><defs
     id="defs2"><inkscape:path-effect
       effect="perspective-envelope"
       up_left_point="5.51,1.67"
       up_right_point="6.46,0.67"
       down_left_point="4.51,4.01"
       down_right_point="6.06,1.81"
       id="path-effect8247"
       is_visible="true"
       lpeversion="1"
       deform_type="perspective"
       horizontal_mirror="false"
       vertical_mirror="false"
       overflow_perspective="false" /><inkscape:path-effect
       effect="perspective-envelope"
       up_left_point="4.46,5.04"
       up_right_point="6.1090816,5.24"
       down_left_point="4.86,6.68"
       down_right_point="6.91,6.8831639"
       id="path-effect7788"
       is_visible="true"
       lpeversion="1"
       deform_type="perspective"
       horizontal_mirror="false"
       vertical_mirror="false"
       overflow_perspective="false" /><inkscape:path-effect
       effect="perspective-envelope"
       up_left_point="6.78,6.37"
       up_right_point="8.24,5.97"
       down_left_point="6.08,7.63"
       down_right_point="8.14,7.13"
       id="path-effect6241"
       is_visible="true"
       lpeversion="1"
       deform_type="perspective"
       horizontal_mirror="false"
       vertical_mirror="false"
       overflow_perspective="false" /><inkscape:path-effect
       effect="perspective-envelope"
       up_left_point="1.98,4.34"
       up_right_point="3.55,4.84"
       down_left_point="1.88,5.87"
       down_right_point="3.55,6.27"
       id="path-effect5878"
       is_visible="true"
       lpeversion="1"
       deform_type="perspective"
       horizontal_mirror="false"
       vertical_mirror="false"
       overflow_perspective="false" /><inkscape:path-effect
       effect="perspective-envelope"
       up_left_point="9.57,3.74"
       up_right_point="11.08,3.44"
       down_left_point="10.27,5.1"
       down_right_point="11.78,4.7"
       id="path-effect5641"
       is_visible="true"
       lpeversion="1"
       deform_type="perspective"
       horizontal_mirror="false"
       vertical_mirror="false"
       overflow_perspective="false" /><inkscape:path-effect
       effect="perspective-envelope"
       up_left_point="2.71,2.39"
       up_right_point="4.28,2.89"
       down_left_point="2.21,3.72"
       down_right_point="3.78,4.32"
       id="path-effect5380"
       is_visible="true"
       lpeversion="1"
       deform_type="perspective"
       horizontal_mirror="false"
       vertical_mirror="false"
       overflow_perspective="false" /><marker
       style="overflow:visible"
       id="RoundedArrow"
       refX="0"
       refY="0"
       orient="auto-start-reverse"
       inkscape:stockid="RoundedArrow"
       markerWidth="3.135"
       markerHeight="3.0306199"
       viewBox="0 0 6.1347524 5.9304951"
       inkscape:isstock="true"
       inkscape:collect="always"
       preserveAspectRatio="xMidYMid"><path
         transform="scale(0.7)"
         d="m -0.21114562,-4.1055728 6.42229122,3.21114561 a 1,1 90 0 1 0,1.78885438 L -0.21114562,4.1055728 A 1.236068,1.236068 31.717474 0 1 -2,3 v -6 a 1.236068,1.236068 148.28253 0 1 1.78885438,-1.1055728 z"
         style="fill:context-stroke;fill-rule:evenodd;stroke:none"
         id="path1367" /></marker><inkscape:path-effect
       effect="perspective-envelope"
       up_left_point="1.8,4.76"
       up_right_point="3.96,6.06"
       down_left_point="1.9,7.06"
       down_right_point="3.86,8.46"
       id="path-effect840"
       is_visible="true"
       lpeversion="1"
       deform_type="perspective"
       horizontal_mirror="false"
       vertical_mirror="false"
       overflow_perspective="false" /><inkscape:path-effect
       effect="perspective-envelope"
       up_left_point="11.47,3.29"
       up_right_point="13.241984,2.39"
       down_left_point="11.374723,5.92"
       down_right_point="13.241984,4.72"
       id="path-effect831"
       is_visible="true"
       lpeversion="1"
       deform_type="perspective"
       horizontal_mirror="false"
       vertical_mirror="false"
       overflow_perspective="false" /><inkscape:path-effect
       effect="lattice2"
       gridpoint0="11.374723,2.7910737"
       gridpoint1="13.241984,2.7910737"
       gridpoint2="11.374723,5.6181065"
       gridpoint3="13.241984,5.6181065"
       gridpoint4="11.841538,2.7910737"
       gridpoint5="12.775169,2.7910737"
       gridpoint6="11.841538,5.6181065"
       gridpoint7="12.775169,5.6181065"
       gridpoint8x9="12.308353,2.7910737"
       gridpoint10x11="12.308353,5.6181065"
       gridpoint12="11.374723,3.4978319"
       gridpoint13="13.241984,3.4978319"
       gridpoint14="11.374723,4.9113483"
       gridpoint15="13.241984,4.9113483"
       gridpoint16="11.841538,3.4978319"
       gridpoint17="12.775169,3.4978319"
       gridpoint18="11.841538,4.9113483"
       gridpoint19="12.775169,4.9113483"
       gridpoint20x21="12.308353,3.4978319"
       gridpoint22x23="12.308353,4.9113483"
       gridpoint24x26="11.374723,4.2045901"
       gridpoint25x27="13.241984,4.2045901"
       gridpoint28x30="11.841538,4.2045901"
       gridpoint29x31="12.775169,4.2045901"
       gridpoint32x33x34x35="12.308353,4.2045901"
       id="path-effect829"
       is_visible="true"
       lpeversion="1"
       horizontal_mirror="false"
       vertical_mirror="false"
       perimetral="false"
       live_update="true" /><inkscape:path-effect
       effect="bounding_box"
       id="path-effect815"
       is_visible="true"
       lpeversion="1"
       linkedpath=""
       visualbounds="true" /><inkscape:perspective
       sodipodi:type="inkscape:persp3d"
       inkscape:vp_x="0 : 7.6873818 : 1"
       inkscape:vp_y="-1.8369096e-13 : 1000 : 0"
       inkscape:vp_z="9.9999997 : 7.2186079 : 1"
       inkscape:persp3d-origin="5 : 3.3333333 : 1"
       id="perspective237" /></defs><g
     inkscape:label="Layer 1"
     inkscape:groupmode="layer"
     id="layer1"><g
       aria-label="?"
       id="text2335"
       style="font-size:5.14547px;font-family:'Arial Rounded MT Bold';-inkscape-font-specification:'Arial Rounded MT Bold, ';text-align:center;text-anchor:middle;fill:#ff0000;fill-opacity:0.849894;stroke-width:0.694552;stroke-linecap:square;stroke-linejoin:round;stroke-miterlimit:8;paint-order:stroke fill markers" /><path
       id="path566"
       style="fill:none;stroke:#000000;stroke-width:0.4;stroke-linecap:round;stroke-linejoin:round;stroke-miterlimit:8;marker-end:url(#RoundedArrow);paint-order:markers fill stroke"
       d="M 9.5,5.000638 A 4.5,4.5 0 0 1 6.1646857,9.3473042 4.5,4.5 0 0 1 1.1028856,7.2506379" /><path
       id="path1801"
       style="fill:none;stroke:#000000;stroke-width:0.4;stroke-linecap:round;stroke-linejoin:round;stroke-miterlimit:8;marker-end:url(#RoundedArrow);paint-order:markers fill stroke"
       d="M 0.5,5.000638 A 4.5,4.5 0 0 1 3.8353143,0.65397178 4.5,4.5 0 0 1 8.8971142,2.7506379" /><path
       style="fill:#000000;stroke-width:0.999999"
       d="M 5.8848917,7.8225022 C 5.7148905,7.7901589 5.5376982,7.6857675 5.4593144,7.5717738 5.3935705,7.4761621 4.7743834,6.2294665 4.730909,6.1051743 4.6949189,6.0022791 4.692279,5.9784097 4.6918452,5.7518342 4.6915196,5.5815816 4.6975442,5.4874503 4.7119792,5.4373759 4.7557815,5.2854316 5.112272,4.438185 5.164014,4.3630584 5.2550776,4.2308379 5.4146465,4.094113 5.5613799,4.0225792 5.6832002,3.9631913 5.742388,3.9479187 6.4468764,3.7940888 7.2704238,3.6142622 7.3253095,3.6070995 7.4899785,3.6579603 7.6024234,3.6926915 7.739949,3.7817907 7.8060137,3.8627116 7.8689054,3.939748 8.5802588,5.272056 8.608608,5.365908 8.6640691,5.5495156 8.6690012,5.7781109 8.6214657,5.9615688 8.6088007,6.0104397 8.4940057,6.263038 8.3663636,6.522899 8.1137047,7.0372745 8.0685829,7.1061508 7.8895369,7.2507525 7.6864757,7.4147494 7.6541281,7.4263614 6.8271537,7.6321225 6.1194635,7.8082042 5.9692581,7.8385529 5.8848917,7.8225022 Z M 6.0696826,7.0169819 C 6.1748269,6.7812305 6.2826277,6.5560111 6.3092397,6.5164941 6.4073536,6.3708032 6.6002083,6.209514 6.7614442,6.1383041 6.8021247,6.1203366 7.1634506,6.0267678 7.5643845,5.9303733 7.9653188,5.8339789 8.3027285,5.7463795 8.3141836,5.7357077 8.3786156,5.675683 8.2871574,5.6911022 7.5775815,5.859888 7.1772506,5.9551148 6.8106495,6.036477 6.762913,6.0406929 6.6633153,6.0494857 6.5428299,6.0201844 6.4465105,5.9637373 6.3139595,5.8860573 6.2689583,5.814319 5.9064366,5.1027831 5.717819,4.7325764 5.555788,4.4296799 5.5463678,4.4296799 c -0.00942,0 -0.021297,0.00674 -0.026388,0.014985 -0.00508,0.00824 0.1493727,0.331455 0.3432588,0.7182514 0.3223919,0.6431609 0.3544092,0.7136498 0.3746173,0.8247613 0.026871,0.1477381 0.018399,0.3983247 -0.017388,0.5142753 C 6.2071719,6.5450289 6.1133664,6.765882 6.0120075,6.9927354 5.9106494,7.2195887 5.8277194,7.4142919 5.8277194,7.4254086 c 0,0.011117 0.011427,0.020209 0.025398,0.020209 0.019519,0 0.069641,-0.099204 0.2165682,-0.4286393 z M 3.326345,6.5109235 C 2.8825026,6.3701158 1.7224824,5.9819084 1.6695353,5.9564632 1.5246744,5.8868465 1.3850675,5.6899718 1.3521224,5.5088436 1.3384894,5.433882 1.3447984,5.3537854 1.4025006,4.8727803 1.4854416,4.1810138 1.5412083,3.9314611 1.6898288,3.5869948 1.7410805,3.4682036 2.1207064,2.6660408 2.2031262,2.5023771 2.3138669,2.2824756 2.5340892,2.1539016 2.7617221,2.1762484 2.8673956,2.1866274 4.5172192,2.7119209 4.604172,2.7628787 4.7470974,2.8466385 4.8675581,3.0394363 4.8802722,3.2047779 4.885514,3.2732327 4.8655678,3.4134242 4.7923179,3.8222038 4.6914756,4.3849884 4.6353759,4.6243881 4.5344095,4.9228077 4.4780286,5.0894504 4.0420908,6.132195 3.9717087,6.2687652 3.8527098,6.4996708 3.5953113,6.5962536 3.3263427,6.5109235 Z M 3.8832432,6.1127467 C 3.8904711,6.0950586 3.9326686,5.8625071 3.9770283,5.5959661 4.0976502,4.8711933 4.1799094,4.600296 4.5145046,3.8259486 4.6393006,3.5371343 4.7414071,3.2906349 4.7414071,3.2781719 c 0,-0.040063 -0.048863,-0.015456 -0.073071,0.036802 C 4.6556397,3.3423832 4.5470843,3.5915502 4.4271076,3.8686774 4.1857845,4.4260932 4.1595012,4.4689386 4.0155005,4.5396521 3.94581,4.5738745 3.9170348,4.579617 3.8194719,4.5787757 3.7107357,4.577835 3.6630336,4.5640206 2.8475107,4.2972359 2.3533911,4.1355933 1.984549,4.022012 1.9772787,4.0292571 c -0.00694,0.00692 -0.00935,0.021048 -0.00536,0.031403 0.00402,0.010358 0.3795187,0.1406197 0.8344981,0.2894765 0.4549785,0.1488569 0.8563059,0.2848971 0.891838,0.3023115 0.084763,0.041543 0.1927042,0.1584392 0.2383335,0.2581068 0.062024,0.1354788 0.059228,0.2015498 -0.0307,0.7254644 -0.044393,0.2586216 -0.077375,0.4789211 -0.073296,0.4895544 0.011277,0.029387 0.035963,0.023134 0.050648,-0.012827 z"
       id="path4939"
       sodipodi:nodetypes="sssssssssssssssscssssscssscsssssscccscccscsccsscccsssssscsccssscccc" /><g
       aria-label="a"
       id="text5121"
       style="font-weight:bold;font-size:2.82222px;font-family:Arial;-inkscape-font-specification:'Arial Bold';text-align:center;text-anchor:middle;fill:#ffffff;stroke-width:0.4;stroke-linecap:round;stroke-linejoin:round;stroke-miterlimit:8;paint-order:markers fill stroke"
       inkscape:path-effect="#path-effect5380"><path
         d="M 2.9824201,2.9456073 2.618835,2.7610422 C 2.7071607,2.6531518 2.8145569,2.586959 2.9416936,2.5623279 c 0.1280301,-0.024804 0.29845,-0.00349 0.5133858,0.064958 0.1985136,0.063221 0.3418089,0.1294951 0.42806,0.1985224 0.087334,0.068825 0.1414621,0.1389097 0.1618627,0.2100476 0.021907,0.071015 0.00573,0.1839954 -0.048804,0.3392083 L 3.8433338,3.7941365 c -0.042416,0.1206955 -0.06665,0.2128698 -0.072602,0.2763366 -0.00455,0.063197 0.00219,0.1357888 0.020305,0.2179615 L 3.3324563,4.1138383 c -0.00329,-0.028524 -0.00513,-0.069572 -0.00553,-0.1230681 1.083e-4,-0.024158 -2.266e-4,-0.040238 -0.001,-0.048259 C 3.2274327,3.9731669 3.1294484,3.986823 3.0320919,3.983599 2.9353429,3.980395 2.838859,3.9603283 2.7427683,3.9236057 2.5751787,3.8595587 2.4581285,3.7729647 2.3903834,3.6639912 2.3243122,3.5564902 2.3122045,3.4481361 2.3534626,3.3383896 c 0.027229,-0.07243 0.072567,-0.1291189 0.1361483,-0.1702425 0.064004,-0.042007 0.1399862,-0.064494 0.2282219,-0.067415 0.090042,-0.0034 0.2137672,0.00922 0.372178,0.038125 0.2164891,0.040185 0.3711883,0.06105 0.4618789,0.062116 l 0.012541,-0.034945 C 3.5885794,3.0987366 3.5842935,3.04391 3.5517141,3.0015839 3.5195709,2.9586156 3.444869,2.9178117 3.328338,2.8793092 3.2502237,2.8534998 3.1851859,2.8456418 3.1329628,2.8555907 3.0811844,2.8647028 3.031036,2.8947073 2.982422,2.9456083 Z m 0.4871835,0.4846553 c -0.063116,-0.0052 -0.1603977,-0.01921 -0.2911109,-0.041898 -0.1294836,-0.022475 -0.2159485,-0.030351 -0.2602235,-0.0238 -0.068135,0.011891 -0.111176,0.042408 -0.1293335,0.091638 -0.017881,0.04848 -0.0109,0.098667 0.021076,0.1506957 0.032131,0.05228 0.083371,0.091523 0.1539153,0.1176533 0.079334,0.029387 0.1631153,0.036582 0.2512641,0.021388 0.06574,-0.012157 0.1155844,-0.038351 0.1493606,-0.078549 0.022672,-0.026108 0.049278,-0.081712 0.07976,-0.1666495 z"
         id="path5377"
         inkscape:original-d="M 2.9003591,3.0711782 2.5489596,3.0077884 Q 2.6082152,2.7955707 2.7529091,2.693596 2.897603,2.5916212 3.1828567,2.5916212 q 0.259071,0 0.3858504,0.062012 0.1267794,0.060634 0.1777668,0.1557182 0.052365,0.093706 0.052365,0.3458873 l -0.00413,0.4519962 q 0,0.1929252 0.017914,0.2852537 0.019293,0.09095 0.07028,0.1956813 H 3.4998053 q -0.015158,-0.038585 -0.037207,-0.1143771 -0.00965,-0.034451 -0.01378,-0.045475 -0.099219,0.096463 -0.2122177,0.1446939 -0.1129991,0.048231 -0.2411565,0.048231 -0.2259981,0 -0.3569116,-0.1226453 -0.1295355,-0.1226453 -0.1295355,-0.3100584 0,-0.1240233 0.059256,-0.2204859 0.059256,-0.097841 0.1653644,-0.1488281 0.1074869,-0.052365 0.3086803,-0.09095 0.2714734,-0.050987 0.3762042,-0.095085 v -0.038585 q 0,-0.111621 -0.055121,-0.1584743 -0.055121,-0.048231 -0.2080836,-0.048231 -0.1033528,0 -0.1612304,0.041341 -0.057878,0.039963 -0.093706,0.1419379 z m 0.518142,0.3141924 Q 3.3440871,3.4101753 3.1828567,3.4446262 3.0216264,3.4790772 2.972017,3.51215 2.896225,3.5658935 2.896225,3.6485757 q 0,0.081304 0.060634,0.1405598 0.060634,0.059256 0.1543402,0.059256 0.1047308,0 0.1998154,-0.068902 0.07028,-0.052365 0.092329,-0.1281575 0.015158,-0.049609 0.015158,-0.1887911 z"
         style="fill:#ffffff" /></g><g
       aria-label="z"
       id="text5636"
       style="font-weight:bold;font-size:2.82223px;font-family:Arial;-inkscape-font-specification:'Arial Bold';text-align:center;text-anchor:middle;fill:#ffffff;stroke-width:0.4;stroke-linecap:round;stroke-linejoin:round;stroke-miterlimit:8;paint-order:markers fill stroke"
       transform="translate(-3.6033495,0.55581701)"
       inkscape:path-effect="#path-effect5641"><path
         d="M 10.27,5.1 10.121879,4.8122217 10.478276,4.0779201 c 0.05588,-0.1142415 0.09819,-0.1950501 0.127351,-0.2433688 -0.0503,0.013355 -0.117715,0.029461 -0.202558,0.048381 L 9.7859769,4.0167764 9.63623,3.7268417 11.033719,3.4491949 11.161682,3.6800521 10.84394,4.382847 10.718809,4.6325686 c 0.122195,-0.037093 0.197582,-0.059164 0.227158,-0.066521 L 11.613356,4.4000409 11.78,4.7 Z"
         id="path5638"
         inkscape:original-d="M 9.9705369,5 V 4.6982088 L 10.518998,4.0684436 q 0.135048,-0.1543407 0.199816,-0.2191087 -0.06752,0.00413 -0.177768,0.00551 l -0.516765,0.00276 V 3.5365194 h 1.20992 v 0.2742303 l -0.559485,0.6449237 -0.19706,0.2135965 q 0.161231,-0.00965 0.199816,-0.00965 h 0.599449 V 5 Z"
         style="fill:#ffffff" /></g><g
       aria-label="e"
       id="text5873"
       style="font-weight:bold;font-size:2.82223px;font-family:Arial;-inkscape-font-specification:'Arial Bold';text-align:center;text-anchor:middle;fill:#ffffff;stroke-width:0.4;stroke-linecap:round;stroke-linejoin:round;stroke-miterlimit:8;paint-order:markers fill stroke"
       inkscape:path-effect="#path-effect5878"
       transform="translate(-0.07734375,-0.03314732)"><path
         d="M 3.0922356,5.6637693 3.5268507,5.8414306 C 3.471556,5.9636659 3.3828254,6.0468629 3.2596122,6.0900877 3.1351025,6.1334847 2.9767666,6.1326986 2.7834487,6.0863949 2.4691412,6.0111117 2.2341833,5.8668777 2.0862043,5.6551804 1.969234,5.4856762 1.9174407,5.2971569 1.9308229,5.0924103 1.946524,4.8521833 2.0385275,4.6916015 2.2036877,4.6088769 2.3645405,4.527475 2.5580017,4.524077 2.783183,4.5957908 3.0298646,4.6743518 3.219125,4.7996638 3.3553195,4.9726873 3.4909218,5.1441208 3.5555724,5.3646126 3.5496215,5.639339 L 2.4253995,5.3309266 c -0.00172,0.1149106 0.032944,0.2147373 0.1038702,0.2985616 0.070775,0.082683 0.1603212,0.1377801 0.2678559,0.1652182 0.072474,0.018492 0.1333879,0.017492 0.1828685,-0.00278 0.049098,-0.020111 0.086471,-0.062929 0.1122415,-0.1281613 z M 3.1240211,5.2960787 C 3.1227055,5.1899609 3.0914579,5.1011006 3.0301621,5.0287272 2.9687416,4.9553314 2.89278,4.904836 2.801725,4.8771675 2.7033341,4.8472699 2.6201816,4.8512375 2.552454,4.8896369 2.4839347,4.9284855 2.447665,4.9989406 2.4442269,5.1012825 Z"
         id="path5875"
         inkscape:original-d="m 2.939157,5.4666001 0.3858518,0.064768 Q 3.2505945,5.7435865 3.0893636,5.8552079 2.9295107,5.9654513 2.6883534,5.9654513 q -0.3817177,0 -0.5649973,-0.2494256 -0.1446944,-0.1998161 -0.1446944,-0.5043634 0,-0.3638031 0.1901698,-0.5691314 0.1901698,-0.2067063 0.4809367,-0.2067063 0.3265959,0 0.5153877,0.2163526 0.1887918,0.2149746 0.1805235,0.6600822 H 2.3755378 q 0.00413,0.1722552 0.093707,0.2687182 0.089573,0.095085 0.2232428,0.095085 0.090951,0 0.1529626,-0.049609 0.062012,-0.04961 0.093707,-0.1598535 z M 2.961206,5.0752361 Q 2.9570716,4.907115 2.874389,4.8202984 2.7917065,4.7321037 2.6731949,4.7321037 q -0.1267799,0 -0.2094624,0.092329 -0.082682,0.092329 -0.081304,0.2508036 z"
         style="fill:#ffffff" /></g><g
       aria-label="y"
       id="text6236"
       style="font-weight:bold;font-size:2.54358px;font-family:Arial;-inkscape-font-specification:'Arial Bold';text-align:center;text-anchor:middle;fill:#ffffff;stroke-width:0.4;stroke-linecap:round;stroke-linejoin:round;stroke-miterlimit:8;paint-order:markers fill stroke"
       inkscape:path-effect="#path-effect6241"><path
         d="M 6.78,6.37 7.1679684,6.2637073 7.3329178,6.677037 7.8391197,6.0798302 8.24,5.97 7.5322763,6.8325682 7.3674579,7.0349547 C 7.3048288,7.1079825 7.2469503,7.1674421 7.1946826,7.2121422 7.1428126,7.2572464 7.0858038,7.297708 7.0238996,7.3332042 6.9624411,7.3694455 6.889567,7.4037903 6.8055562,7.4360496 6.7226162,7.4680712 6.6320254,7.4960132 6.53432,7.5197282 6.4359517,7.543604 6.3433167,7.560199 6.2567637,7.5695322 l 0.08512,-0.2335652 c 0.069748,-0.00949 0.1349874,-0.021768 0.1954101,-0.036817 0.1122832,-0.027966 0.2046757,-0.068778 0.2757036,-0.1216105 0.069544,-0.051276 0.1297269,-0.1088326 0.1803131,-0.1719329 z"
         id="path6238"
         inkscape:original-d="M 6.6841623,5.8728324 H 7.055515 L 7.3709786,6.8092872 7.6789902,5.8728324 H 8.0404071 L 7.5746637,7.1421385 7.4914509,7.3719052 q -0.045953,0.1155044 -0.088181,0.1763615 -0.040985,0.060857 -0.095633,0.098117 -0.053405,0.038501 -0.1328922,0.059615 -0.078245,0.021114 -0.1776035,0.021114 -0.1006005,0 -0.1974752,-0.021114 L 6.7686171,7.4327624 q 0.081971,0.016146 0.1477959,0.016146 0.1217143,0 0.1800874,-0.072035 0.058373,-0.070793 0.089423,-0.1813294 z"
         style="fill:#ffffff" /></g><g
       aria-label="?"
       id="text6521"
       style="font-weight:bold;font-size:2.82223px;font-family:Arial;-inkscape-font-specification:'Arial Bold';text-align:center;text-anchor:middle;fill:#ffffff;stroke-width:0.523176;stroke-linecap:round;stroke-linejoin:round;stroke-miterlimit:8;paint-order:markers fill stroke"
       transform="matrix(0.42253367,0.63719728,-0.63719728,0.42253367,6.8910333,-0.08965476)"
       inkscape:path-effect="#path-effect7788"><path
         d="M 5.9354374,6.3126577 5.4674286,6.2631385 c -0.016299,-0.04482 -0.026,-0.071849 -0.02924,-0.081461 C 5.4051926,6.0837757 5.4031026,6.0078043 5.4309015,5.9526106 5.4582088,5.8983929 5.5298261,5.8431691 5.6440282,5.7872447 5.7555317,5.732642 5.8192738,5.6966707 5.8371275,5.6784623 5.8640688,5.6498137 5.8689718,5.6157675 5.8521953,5.576432 5.8291918,5.5224964 5.7742696,5.4729395 5.6877436,5.4274387 5.6028052,5.3818399 5.5012228,5.3521467 5.3821191,5.3380131 5.2669291,5.3243439 5.1768084,5.3319976 5.1113666,5.3613075 5.0450161,5.3910244 5.0091862,5.444956 5.0044829,5.5242689 L 4.5579574,5.4416254 c -0.01619,-0.1152725 0.043735,-0.2013579 0.1765501,-0.2599993 0.1302631,-0.056916 0.3152659,-0.070099 0.5564279,-0.040851 0.251996,0.030562 0.4675744,0.092449 0.6506559,0.1871617 0.186316,0.095914 0.3069923,0.198265 0.3606046,0.308256 0.030424,0.062419 0.030615,0.1191924 -2.486e-4,0.1701558 -0.030303,0.052013 -0.1192177,0.1191329 -0.2701711,0.2027808 -0.08019,0.044441 -0.1267922,0.082826 -0.1388002,0.1147878 -0.010939,0.032415 0.00295,0.094841 0.042461,0.1887401 z M 5.6338914,6.756696 5.5081767,6.3839554 l 0.5232204,0.054504 0.149828,0.3724798 z"
         id="path6523"
         inkscape:original-d="M 5.5482185,6.362264 H 5.1968177 q -0.00138,-0.075792 -0.00138,-0.092329 0,-0.1708772 0.0565,-0.2811206 0.0565,-0.1102433 0.2259989,-0.2480475 0.1694992,-0.1378042 0.2025722,-0.1805235 0.050988,-0.067524 0.050988,-0.1488286 0,-0.1129994 -0.090951,-0.1929259 -0.089573,-0.081304 -0.2425354,-0.081304 -0.1474505,0 -0.2466696,0.084061 -0.099219,0.084061 -0.1364261,0.2563158 L 4.6593813,5.4334637 q 0.015159,-0.2466695 0.2094624,-0.4189248 0.195682,-0.1722552 0.5126317,-0.1722552 0.3334861,0 0.5305462,0.1750113 0.19706,0.1736333 0.19706,0.4051444 0,0.1281579 -0.073036,0.2425354 Q 5.9643872,5.7793523 5.7273639,5.9764123 5.6047182,6.0783874 5.5744013,6.1403993 5.5454624,6.2024112 5.5482185,6.362264 Z M 5.1968177,6.8831639 V 6.4959341 h 0.3872299 v 0.3872298 z"
         style="fill:#ffffff;stroke-width:0.523176" /></g><g
       aria-label="?"
       id="text8242"
       style="font-weight:bold;font-size:2.82223px;font-family:Arial;-inkscape-font-specification:'Arial Bold';text-align:center;text-anchor:middle;fill:#ffffff;stroke-width:0.685345;stroke-linecap:round;stroke-linejoin:round;stroke-miterlimit:8;paint-order:markers fill stroke"
       transform="matrix(0.42632758,0,0,0.79901941,1.9592669,3.2279352)"
       inkscape:path-effect="#path-effect8247"><path
         d="M 5.8124874,1.965814 5.5034712,2.3770574 c 0.017107,-0.044674 0.027542,-0.071796 0.031426,-0.081683 0.039608,-0.100832 0.088916,-0.2042685 0.1467002,-0.3086201 0.055349,-0.099954 0.1408743,-0.2396329 0.2501132,-0.4094255 0.099526,-0.1546961 0.1561191,-0.2440812 0.1759908,-0.2777728 0.030175,-0.051416 0.050931,-0.092931 0.062827,-0.1254132 0.01636,-0.044672 0.01349,-0.063459 -0.00893,-0.056624 -0.022318,0.00587 -0.064419,0.042928 -0.1289184,0.1144618 -0.066407,0.073649 -0.1332363,0.1590036 -0.1999103,0.2564088 -0.070698,0.1032839 -0.13694,0.2155808 -0.19738,0.3359335 L 5.2710312,2.2291869 C 5.3527552,2.0522969 5.4859736,1.8345675 5.6558385,1.5947854 5.8063151,1.3826337 5.9533966,1.2032668 6.0941378,1.0551181 6.2229138,0.9195644 6.3022519,0.85540138 6.3428736,0.84972389 6.3814559,0.84388594 6.3862747,0.8801172 6.3584203,0.95950222 6.3427292,1.0042217 6.3162719,1.0606911 6.2781092,1.1304762 6.2388964,1.2024684 6.1621252,1.3309892 6.0385328,1.530754 5.9684199,1.6440803 5.9190735,1.7273082 5.8936062,1.7755173 5.8682701,1.8238805 5.8412304,1.8872035 5.8124874,1.965814 Z M 5.3057063,2.8806105 5.4548527,2.5008507 5.8019591,2.0309219 5.6868276,2.3396641 Z"
         id="path8244"
         style="stroke-width:0.685345;fill:#ffffff"
         inkscape:original-d="M 6.1029346,2.8855239 H 5.7515338 q -0.00138,-0.075792 -0.00138,-0.092329 0,-0.1708772 0.0565,-0.2811206 0.0565,-0.1102433 0.2259989,-0.2480475 0.1694992,-0.1378042 0.2025722,-0.1805236 0.050988,-0.067524 0.050988,-0.1488285 0,-0.1129994 -0.090951,-0.1929259 -0.089573,-0.081304 -0.2425354,-0.081304 -0.1474505,0 -0.2466695,0.084061 -0.099219,0.084061 -0.1364262,0.2563158 L 5.2140975,1.9567236 q 0.015158,-0.2466695 0.2094623,-0.4189248 0.195682,-0.1722553 0.5126317,-0.1722553 0.3334862,0 0.5305462,0.1750114 0.19706,0.1736333 0.19706,0.4051443 0,0.128158 -0.073036,0.2425354 Q 6.5191033,2.3026121 6.28208,2.4996721 6.1594343,2.6016473 6.1291174,2.6636591 6.1001785,2.725671 6.1029346,2.8855239 Z M 5.7515338,3.4064238 V 3.019194 h 0.3872299 v 0.3872298 z" /></g></g></svg>
