<?xml version="1.0" encoding="UTF-8" standalone="no"?>
<!-- Created with Inkscape (http://www.inkscape.org/) -->

<svg
   width="10mm"
   height="10mm"
   viewBox="0 0 10 10"
   version="1.1"
   id="svg5"
   inkscape:version="1.2.2 (732a01da63, 2022-12-09)"
   sodipodi:docname="random.svg"
   xml:space="preserve"
   xmlns:inkscape="http://www.inkscape.org/namespaces/inkscape"
   xmlns:sodipodi="http://sodipodi.sourceforge.net/DTD/sodipodi-0.dtd"
   xmlns="http://www.w3.org/2000/svg"
   xmlns:svg="http://www.w3.org/2000/svg"><sodipodi:namedview
     id="namedview7"
     pagecolor="#ffffff"
     bordercolor="#000000"
     borderopacity="0.25"
     inkscape:showpageshadow="2"
     inkscape:pageopacity="0.0"
     inkscape:pagecheckerboard="0"
     inkscape:deskcolor="#d1d1d1"
     inkscape:document-units="mm"
     showgrid="false"
     inkscape:zoom="16.932469"
     inkscape:cx="26.841921"
     inkscape:cy="22.294444"
     inkscape:window-width="1920"
     inkscape:window-height="1009"
     inkscape:window-x="-8"
     inkscape:window-y="-8"
     inkscape:window-maximized="1"
     inkscape:current-layer="layer1" /><defs
     id="defs2"><inkscape:path-effect
       effect="perspective-envelope"
       up_left_point="1.8,4.76"
       up_right_point="3.96,6.06"
       down_left_point="1.9,7.06"
       down_right_point="3.86,8.46"
       id="path-effect840"
       is_visible="true"
       lpeversion="1"
       deform_type="perspective"
       horizontal_mirror="false"
       vertical_mirror="false"
       overflow_perspective="false" /><inkscape:path-effect
       effect="perspective-envelope"
       up_left_point="11.47,3.29"
       up_right_point="13.241984,2.39"
       down_left_point="11.374723,5.92"
       down_right_point="13.241984,4.72"
       id="path-effect831"
       is_visible="true"
       lpeversion="1"
       deform_type="perspective"
       horizontal_mirror="false"
       vertical_mirror="false"
       overflow_perspective="false" /><inkscape:path-effect
       effect="lattice2"
       gridpoint0="11.374723,2.7910737"
       gridpoint1="13.241984,2.7910737"
       gridpoint2="11.374723,5.6181065"
       gridpoint3="13.241984,5.6181065"
       gridpoint4="11.841538,2.7910737"
       gridpoint5="12.775169,2.7910737"
       gridpoint6="11.841538,5.6181065"
       gridpoint7="12.775169,5.6181065"
       gridpoint8x9="12.308353,2.7910737"
       gridpoint10x11="12.308353,5.6181065"
       gridpoint12="11.374723,3.4978319"
       gridpoint13="13.241984,3.4978319"
       gridpoint14="11.374723,4.9113483"
       gridpoint15="13.241984,4.9113483"
       gridpoint16="11.841538,3.4978319"
       gridpoint17="12.775169,3.4978319"
       gridpoint18="11.841538,4.9113483"
       gridpoint19="12.775169,4.9113483"
       gridpoint20x21="12.308353,3.4978319"
       gridpoint22x23="12.308353,4.9113483"
       gridpoint24x26="11.374723,4.2045901"
       gridpoint25x27="13.241984,4.2045901"
       gridpoint28x30="11.841538,4.2045901"
       gridpoint29x31="12.775169,4.2045901"
       gridpoint32x33x34x35="12.308353,4.2045901"
       id="path-effect829"
       is_visible="true"
       lpeversion="1"
       horizontal_mirror="false"
       vertical_mirror="false"
       perimetral="false"
       live_update="true" /><inkscape:path-effect
       effect="bounding_box"
       id="path-effect815"
       is_visible="true"
       lpeversion="1"
       linkedpath=""
       visualbounds="true" /><inkscape:perspective
       sodipodi:type="inkscape:persp3d"
       inkscape:vp_x="0 : 7.6873818 : 1"
       inkscape:vp_y="-1.8369096e-13 : 1000 : 0"
       inkscape:vp_z="9.9999997 : 7.2186079 : 1"
       inkscape:persp3d-origin="5 : 3.3333333 : 1"
       id="perspective237" /></defs><g
     inkscape:label="Layer 1"
     inkscape:groupmode="layer"
     id="layer1"><g
       id="g2279"
       transform="matrix(1.113157,0,0,1.113157,-11.670974,-0.50981067)"
       style="fill:#000000"><rect
         style="fill:#000000;fill-opacity:0.849894;stroke:none;stroke-width:1.07928;stroke-linecap:square;stroke-linejoin:round;stroke-miterlimit:8;paint-order:stroke fill markers"
         id="rect2269"
         width="4.4897752"
         height="4.4897752"
         x="3.5893614"
         y="9.1727209"
         ry="0.48157525"
         transform="matrix(0.86809786,-0.49639309,0.86809786,0.49639309,0,0)" /><path
         id="rect2271"
         style="fill:#000000;fill-opacity:0.849894;stroke-linecap:square;stroke-linejoin:round;stroke-miterlimit:8;paint-order:stroke fill markers"
         d="m 15.5876,5.037872 2.92246,-1.6838207 c 0.231168,-0.1331906 0.383914,-0.00187 0.383914,0.2649245 v 3.2063485 c 0,0.2667927 -0.156632,0.4830369 -0.38782,0.6161905 L 15.618852,9.1044629 C 15.387663,9.237617 15.137277,9.2959512 15.137277,9.0291585 V 5.7069568 c 0,-0.2667926 0.219155,-0.535894 0.450323,-0.6690848 z"
         sodipodi:nodetypes="sssssssss" /><path
         id="path2274"
         style="fill:#000000;fill-opacity:0.849894;stroke-linecap:square;stroke-linejoin:round;stroke-miterlimit:8;paint-order:stroke fill markers"
         d="m 14.365001,5.037872 -2.92246,-1.6838207 c -0.231168,-0.1331906 -0.383914,-0.00187 -0.383914,0.2649245 v 3.2063485 c 0,0.2667927 0.156632,0.4830369 0.38782,0.6161905 l 2.887302,1.6629481 c 0.231189,0.1331541 0.481575,0.1914883 0.481575,-0.075304 V 5.7069568 c 0,-0.2667926 -0.219155,-0.535894 -0.450323,-0.6690848 z"
         sodipodi:nodetypes="sssssssss" /></g><g
       aria-label="?"
       id="text2335"
       style="font-size:5.14547px;font-family:'Arial Rounded MT Bold';-inkscape-font-specification:'Arial Rounded MT Bold, ';text-align:center;text-anchor:middle;fill:#ff0000;fill-opacity:0.849894;stroke-width:0.694552;stroke-linecap:square;stroke-linejoin:round;stroke-miterlimit:8;paint-order:stroke fill markers" /><g
       aria-label="?"
       id="text658"
       style="font-size:3.82415px;font-family:'Arial Rounded MT Bold';-inkscape-font-specification:'Arial Rounded MT Bold, ';text-align:center;text-anchor:middle;fill:#ffffff;fill-opacity:0.992157;stroke-width:0.516196;stroke-linecap:square;stroke-linejoin:round;stroke-miterlimit:8;paint-order:stroke fill markers"
       transform="matrix(1.3351037,0,0,1.3351037,-9.2094709,1.0972519)"
       inkscape:path-effect="#path-effect831"><path
         d="m 11.444681,3.9889121 c 0.0039,-0.1071768 0.04786,-0.2363607 0.131135,-0.386454 0.08226,-0.1492948 0.198413,-0.2965736 0.347148,-0.4412217 0.146017,-0.142004 0.312105,-0.2598189 0.4974,-0.3539312 0.168896,-0.085783 0.315108,-0.1328367 0.439869,-0.14227 0.1233,-0.010324 0.217178,0.013397 0.282541,0.070909 0.0662,0.056723 0.09921,0.1388543 0.09921,0.2469169 0,0.085388 -0.01907,0.1709901 -0.0574,0.2570349 -0.03751,0.086042 -0.08302,0.1683279 -0.136669,0.24688 -0.05296,0.077515 -0.149767,0.213837 -0.29231,0.4115391 -0.03993,0.056012 -0.07243,0.104154 -0.09739,0.1442962 -0.02386,0.03853 -0.04188,0.072108 -0.05399,0.1006759 -0.01213,0.027547 -0.02191,0.054295 -0.02934,0.080232 -0.0062,0.02417 -0.01626,0.066864 -0.03017,0.1282213 -0.02442,0.1277759 -0.09719,0.228707 -0.2194,0.3028551 -0.06421,0.038956 -0.118499,0.052994 -0.162642,0.041879 -0.04303,-0.011909 -0.06375,-0.055685 -0.06203,-0.1311282 0.0021,-0.094266 0.02024,-0.1848499 0.05412,-0.2716082 0.0337,-0.087324 0.07746,-0.171315 0.131131,-0.2519084 0.05327,-0.081055 0.12433,-0.1808742 0.212658,-0.2988227 0.07654,-0.1020937 0.131068,-0.1766431 0.164081,-0.2242992 0.03402,-0.049115 0.06214,-0.097942 0.08441,-0.146519 0.02333,-0.049014 0.03517,-0.094707 0.03557,-0.1371733 7.77e-4,-0.082648 -0.03282,-0.1338801 -0.101072,-0.153986 -0.06746,-0.020827 -0.156134,-0.00246 -0.266763,0.055728 -0.131196,0.069 -0.22967,0.1502591 -0.294443,0.2436756 -0.06536,0.093217 -0.1221,0.2107519 -0.170109,0.3529696 -0.0461,0.1477258 -0.129739,0.2556432 -0.251757,0.323336 -0.07268,0.040319 -0.13402,0.052715 -0.183742,0.036911 -0.04854,-0.017719 -0.07193,-0.052675 -0.07005,-0.1047379 z m 0.889124,1.3147317 c -0.07624,0.048996 -0.143171,0.069765 -0.200506,0.061972 -0.0563,-0.0098 -0.08357,-0.055917 -0.08165,-0.1381161 0.0017,-0.072715 0.03111,-0.1511198 0.08789,-0.2348671 0.05633,-0.083082 0.124167,-0.1488792 0.203331,-0.1975664 0.07726,-0.047517 0.141392,-0.063261 0.192734,-0.04758 0.05114,0.015621 0.0762,0.05835 0.07533,0.1283804 -9.75e-4,0.078039 -0.02889,0.1568033 -0.08407,0.2365781 -0.05561,0.080404 -0.119932,0.1442037 -0.193068,0.1912047 z"
         id="path812"
         inkscape:original-d="m 11.374723,3.5715887 q 0,-0.1773897 0.113903,-0.358514 0.113903,-0.1829916 0.332372,-0.3024963 0.21847,-0.1195047 0.509762,-0.1195047 0.270753,0 0.478019,0.1008321 0.207266,0.098965 0.319302,0.2707528 0.113903,0.171788 0.113903,0.3734522 0,0.1587171 -0.06535,0.2782218 -0.06349,0.1195047 -0.153116,0.207266 -0.08776,0.085894 -0.317434,0.2912927 -0.06349,0.057885 -0.102699,0.1026993 -0.03735,0.042947 -0.05602,0.080292 -0.01867,0.035478 -0.02988,0.072823 -0.0093,0.035478 -0.02988,0.1269737 -0.03548,0.1941951 -0.222204,0.1941951 -0.0971,0 -0.164319,-0.063487 -0.06535,-0.063487 -0.06535,-0.1885934 0,-0.1568499 0.04855,-0.2707528 0.04855,-0.1157701 0.128841,-0.2016641 0.08029,-0.087761 0.216602,-0.207266 0.119505,-0.1045666 0.171788,-0.1568499 0.05415,-0.054151 0.08963,-0.1195047 0.03735,-0.065354 0.03735,-0.1419118 0,-0.1493809 -0.112036,-0.2520802 -0.110168,-0.1026994 -0.285691,-0.1026994 -0.205398,0 -0.302496,0.1045667 -0.0971,0.1026993 -0.164319,0.3043635 -0.06349,0.2110004 -0.240876,0.2110004 -0.104567,0 -0.17739,-0.072823 -0.07096,-0.07469 -0.07096,-0.1605845 z m 0.911223,2.0465178 q -0.113903,0 -0.199797,-0.072823 -0.08403,-0.07469 -0.08403,-0.207266 0,-0.1176374 0.08216,-0.1979296 0.08216,-0.080292 0.201664,-0.080292 0.117638,0 0.19793,0.080292 0.08029,0.080292 0.08029,0.1979296 0,0.1307083 -0.08403,0.2053987 -0.08403,0.07469 -0.194195,0.07469 z"
         style="fill:#ffffff" /></g><g
       aria-label="a"
       id="text835"
       style="font-size:4.79059px;font-family:'Arial Rounded MT Bold';-inkscape-font-specification:'Arial Rounded MT Bold, ';text-align:center;text-anchor:middle;fill:#ffffff;fill-opacity:0.992157;stroke-width:0.646649;stroke-linecap:square;stroke-linejoin:round;stroke-miterlimit:8;paint-order:stroke fill markers"
       inkscape:path-effect="#path-effect840"
       transform="matrix(1.1183853,0,0,1.1183853,-0.48128837,-0.7566426)"><path
         d="M 3.2669561,7.731833 C 3.1368345,7.7425255 3.0132965,7.7310945 2.8957045,7.6980947 2.7811542,7.6652065 2.6539838,7.5985599 2.5143244,7.4988032 2.388447,7.4088907 2.2781039,7.3046043 2.1824905,7.1855546 2.088458,7.0666286 2.0149628,6.9443625 1.9615728,6.8180921 1.9080399,6.6914839 1.878863,6.57385 1.8741179,6.4647108 1.8676464,6.315868 1.9038541,6.2155775 1.9838224,6.1645589 c 0.08136,-0.051907 0.1977816,-0.047096 0.3502599,0.015967 0.032315,0.012893 0.1130625,0.047048 0.2436256,0.1030606 0.1325689,0.056872 0.2474492,0.1046445 0.3439161,0.1429798 0.098909,0.038197 0.2071586,0.077033 0.325125,0.1165896 C 3.2418949,6.3802342 3.2128367,6.2436833 3.1595804,6.1349466 3.1076639,6.0254604 2.9985053,5.9188753 2.8341045,5.8165081 2.6948426,5.7297942 2.5912448,5.6867226 2.5224491,5.6864301 2.4556424,5.6869523 2.3989379,5.7143923 2.3522426,5.7682856 2.3073438,5.8223697 2.2753826,5.85637 2.25604,5.8706991 2.2379868,5.8843462 2.197235,5.8706713 2.1340296,5.8299063 2.077359,5.7933559 2.0275956,5.7411514 1.9845284,5.6731825 1.9426594,5.6046231 1.9204163,5.537439 1.9177693,5.4713393 1.9135983,5.3671804 1.9409224,5.2846868 2.0003952,5.223861 c 0.060325,-0.061698 0.158381,-0.084065 0.2954446,-0.066185 0.1396942,0.018223 0.3180894,0.092188 0.536581,0.2236881 0.2498201,0.1503546 0.4499756,0.3048141 0.5968798,0.4616524 0.148197,0.1566161 0.2515077,0.3258332 0.3087145,0.5058344 0.05834,0.1798668 0.08315,0.383679 0.074801,0.6089957 -0.00519,0.1401412 -0.01027,0.257355 -0.015245,0.3522826 -0.00351,0.095094 -0.0081,0.1994554 -0.013723,0.3128094 -0.00392,0.1063166 0.00942,0.2284071 0.039838,0.366299 0.031655,0.1365957 0.04674,0.220513 0.045414,0.2523492 -0.00231,0.055497 -0.031921,0.086633 -0.088447,0.093566 C 3.7260381,8.341689 3.6652274,8.3208764 3.5981744,8.2729814 3.5421692,8.2329777 3.4877372,8.1684278 3.4346841,8.0792153 3.3816881,7.9887505 3.325828,7.8730703 3.2669561,7.731833 Z M 3.242136,6.8966237 C 3.160817,6.8740881 3.0437606,6.8295975 2.8923326,6.7638425 2.7447718,6.6986855 2.64399,6.6560641 2.5884103,6.6352629 2.533183,6.6132282 2.4811125,6.6087704 2.4322451,6.6216953 c -0.048475,0.011458 -0.071599,0.057662 -0.069691,0.1382811 0.00196,0.082741 0.0322,0.1727607 0.090768,0.2705395 0.058587,0.096536 0.1346599,0.1774566 0.2288238,0.2431473 0.1013107,0.070677 0.1953184,0.1131914 0.28207,0.1271523 0.089128,0.013694 0.1552879,-0.00258 0.197967,-0.049309 0.049863,-0.050889 0.076293,-0.1743323 0.078877,-0.3723388 z"
         id="path837"
         inkscape:original-d="M 3.2562206,7.397966 Q 3.0246442,7.578081 2.8071028,7.669308 2.5919005,7.758196 2.3228977,7.758196 2.0772864,7.758196 1.8901539,7.662291 1.7053607,7.564046 1.604777,7.397966 1.5041933,7.231886 1.5041933,7.0377361 q 0,-0.2619854 0.1660801,-0.4467786 Q 1.8363534,6.4061642 2.1264086,6.343007 2.1872266,6.328972 2.4281596,6.27985 2.6690926,6.2307276 2.8398509,6.190962 3.0129484,6.1488572 3.2141158,6.0903783 3.20242,5.8377495 3.1111929,5.7207918 3.0223051,5.6014948 2.7392673,5.6014948 q -0.2432722,0 -0.3672474,0.067836 -0.1216361,0.067835 -0.210524,0.2035065 -0.086549,0.135671 -0.1239752,0.180115 -0.035087,0.042105 -0.1543842,0.042105 -0.1076012,0 -0.1871324,-0.067836 -0.077192,-0.070175 -0.077192,-0.1777758 0,-0.1684192 0.119297,-0.3274817 Q 1.8574058,5.362901 2.1100345,5.2599782 2.3626633,5.1570554 2.7392673,5.1570554 q 0.4210479,0 0.6619809,0.1005836 0.240933,0.098245 0.3391775,0.3134468 0.1005837,0.2152023 0.1005837,0.5707539 0,0.2245589 -0.00234,0.3812823 0,0.1567234 -0.00234,0.3485341 0,0.180115 0.058479,0.376604 0.060818,0.1941499 0.060818,0.2502896 0,0.098244 -0.093566,0.1801149 -0.091227,0.079531 -0.2081848,0.079531 -0.098245,0 -0.1941499,-0.091227 Q 3.3638217,7.5734027 3.2562206,7.397966 Z M 3.2141158,6.4739997 Q 3.0737665,6.5254611 2.8047636,6.58394 2.5380999,6.64008 2.4351771,6.66815 2.3322543,6.693881 2.2386881,6.773412 q -0.093566,0.077192 -0.093566,0.2175414 0,0.1450276 0.1099403,0.2479505 0.1099402,0.1005836 0.287716,0.1005836 0.1894716,0 0.3485342,-0.08187 0.1614017,-0.08421 0.2362546,-0.2152023 0.086549,-0.1450276 0.086549,-0.4771876 z"
         style="fill:#ffffff" /></g><g
       aria-label="z"
       transform="matrix(0.88797247,-0.56308052,0.88797247,0.56308052,0,0)"
       id="text844"
       style="font-size:5.3826px;font-family:'Arial Rounded MT Bold';-inkscape-font-specification:'Arial Rounded MT Bold, ';text-align:center;text-anchor:middle;fill:#ffffff;fill-opacity:0.992157;stroke-width:0.726561;stroke-linecap:square;stroke-linejoin:round;stroke-miterlimit:8;paint-order:stroke fill markers"><path
         d="M 1.4405557,4.4675265 0.12644441,5.9367029 H 1.5325435 q 0.1708345,0 0.2575658,0.081475 0.086731,0.078847 0.086731,0.2050014 0,0.1208982 -0.086731,0.1971167 -0.084103,0.076218 -0.2575658,0.076218 h -1.94488472 q -0.20500136,0 -0.30750204,-0.08936 -0.0998725,-0.08936 -0.0998725,-0.2444247 0,-0.091988 0.070962,-0.1839756 0.070962,-0.094616 0.29436093,-0.3442972 Q -0.21785275,5.3716351 -0.0259925,5.158749 0.16849597,4.945863 0.33407399,4.7618874 0.49965202,4.5752836 0.60740914,4.4465007 0.71779449,4.3177178 0.78350005,4.22573 h -1.06705836 q -0.2207707,0 -0.33378427,-0.039423 -0.11301357,-0.039423 -0.11301357,-0.2076296 0,-0.1235265 0.0841031,-0.1971167 0.0867314,-0.07359 0.2444247,-0.07359 H 1.2460672 q 0.2286554,0 0.3495536,0.068334 0.1235265,0.065705 0.1235265,0.2391682 0,0.057821 -0.023654,0.1208982 -0.023654,0.060449 -0.052565,0.099873 -0.02891,0.039423 -0.078847,0.097244 -0.049936,0.055193 -0.1235265,0.1340394 z"
         id="path887" /></g></g></svg>
