<?xml version="1.0" encoding="UTF-8" standalone="no"?>
<!-- Created with Inkscape (http://www.inkscape.org/) -->

<svg
   width="10mm"
   height="10mm"
   viewBox="0 0 10 10"
   version="1.1"
   id="svg5"
   inkscape:version="1.2.2 (732a01da63, 2022-12-09)"
   sodipodi:docname="top.svg"
   xmlns:inkscape="http://www.inkscape.org/namespaces/inkscape"
   xmlns:sodipodi="http://sodipodi.sourceforge.net/DTD/sodipodi-0.dtd"
   xmlns="http://www.w3.org/2000/svg"
   xmlns:svg="http://www.w3.org/2000/svg">
  <sodipodi:namedview
     id="namedview7"
     pagecolor="#ffffff"
     bordercolor="#000000"
     borderopacity="0.25"
     inkscape:showpageshadow="2"
     inkscape:pageopacity="0.0"
     inkscape:pagecheckerboard="0"
     inkscape:deskcolor="#d1d1d1"
     inkscape:document-units="mm"
     showgrid="false"
     inkscape:zoom="16.932469"
     inkscape:cx="23.416549"
     inkscape:cy="18.219433"
     inkscape:window-width="1920"
     inkscape:window-height="1009"
     inkscape:window-x="-8"
     inkscape:window-y="-8"
     inkscape:window-maximized="1"
     inkscape:current-layer="layer1" />
  <defs
     id="defs2" />
  <g
     inkscape:label="Layer 1"
     inkscape:groupmode="layer"
     id="layer1">
    <g
       id="path3841">
      <path
         style="color:#000000;fill:#000000;stroke-width:0.4;stroke-linecap:round;stroke-linejoin:round;stroke-miterlimit:8;-inkscape-stroke:none;paint-order:markers fill stroke"
         d="m 1.5,1.5 h 7"
         id="path4829" />
      <path
         style="color:#000000;fill:#000000;stroke-linecap:round;stroke-linejoin:round;stroke-miterlimit:8;-inkscape-stroke:none;paint-order:markers fill stroke"
         d="M 1.5,1.3007812 A 0.2,0.2 0 0 0 1.3007812,1.5 0.2,0.2 0 0 0 1.5,1.6992187 h 7 A 0.2,0.2 0 0 0 8.6992188,1.5 0.2,0.2 0 0 0 8.5,1.3007812 Z"
         id="path4831" />
    </g>
    <g
       id="path3843">
      <g
         id="g4082">
        <path
           style="color:#000000;fill:#000000;stroke-linecap:round;-inkscape-stroke:none"
           d="M 5,2.1171875 3.6582031,3.4589844 a 0.2,0.2 0 0 0 0,0.2832031 0.2,0.2 0 0 0 0.2832032,0 L 5,2.6835938 6.0585937,3.7421875 a 0.2,0.2 0 0 0 0.2832032,0 0.2,0.2 0 0 0 0,-0.2832031 z"
           id="path4084" />
      </g>
      <path
         style="color:#000000;fill:#000000;stroke-linecap:round;stroke-linejoin:round;stroke-miterlimit:8;-inkscape-stroke:none;paint-order:markers fill stroke"
         d="M 5,2.3007813 A 0.2,0.2 0 0 0 4.8007812,2.5 v 6 A 0.2,0.2 0 0 0 5,8.6992188 0.2,0.2 0 0 0 5.1992187,8.5 v -6 A 0.2,0.2 0 0 0 5,2.3007813 Z"
         id="path4090" />
    </g>
  </g>
</svg>
