<?xml version="1.0" encoding="UTF-8" standalone="no"?>
<!-- Created with Inkscape (http://www.inkscape.org/) -->

<svg
   width="10mm"
   height="10mm"
   viewBox="0 0 10 10"
   version="1.1"
   id="svg5"
   inkscape:version="1.2.2 (732a01da63, 2022-12-09)"
   sodipodi:docname="top.svg"
   xmlns:inkscape="http://www.inkscape.org/namespaces/inkscape"
   xmlns:sodipodi="http://sodipodi.sourceforge.net/DTD/sodipodi-0.dtd"
   xmlns="http://www.w3.org/2000/svg"
   xmlns:svg="http://www.w3.org/2000/svg">
  <sodipodi:namedview
     id="namedview7"
     pagecolor="#ffffff"
     bordercolor="#000000"
     borderopacity="0.25"
     inkscape:showpageshadow="2"
     inkscape:pageopacity="0.0"
     inkscape:pagecheckerboard="0"
     inkscape:deskcolor="#d1d1d1"
     inkscape:document-units="mm"
     showgrid="false"
     inkscape:zoom="16.932469"
     inkscape:cx="23.416549"
     inkscape:cy="18.219433"
     inkscape:window-width="1920"
     inkscape:window-height="1009"
     inkscape:window-x="-8"
     inkscape:window-y="-8"
     inkscape:window-maximized="1"
     inkscape:current-layer="layer1" />
  <defs
     id="defs2" />
  <g
     inkscape:label="Layer 1"
     inkscape:groupmode="layer"
     id="layer1">
    <g
       id="path3841">
      <path
         style="color:#000000;fill:#000000;stroke-linecap:round;stroke-linejoin:round;stroke-miterlimit:8;-inkscape-stroke:none;paint-order:markers fill stroke"
         d="M 0.97083333,0.65831735 H 9.0291667"
         id="path6332" />
      <path
         style="color:#000000;fill:#000000;stroke-linecap:round;stroke-linejoin:round;stroke-miterlimit:8;-inkscape-stroke:none;paint-order:markers fill stroke"
         d="m 0.97070313,0.15820312 a 0.5,0.5 0 0 0 -0.5,0.5 0.5,0.5 0 0 0 0.5,0.49999998 H 9.0292969 a 0.5,0.5 0 0 0 0.5,-0.49999998 0.5,0.5 0 0 0 -0.5,-0.5 z"
         id="path6334" />
    </g>
    <g
       id="path3843">
      <g
         id="g6342">
        <path
           style="color:#000000;fill:#000000;stroke-linecap:round;-inkscape-stroke:none"
           d="M 5,1.3085937 1.6464844,4.6621094 a 0.5,0.5 0 0 0 0,0.7070312 0.5,0.5 0 0 0 0.7070312,0 L 5,2.7226563 7.6464844,5.3691406 a 0.5,0.5 0 0 0 0.7070312,0 0.5,0.5 0 0 0 0,-0.7070312 z"
           id="path6344" />
      </g>
      <path
         style="color:#000000;fill:#000000;stroke-linecap:round;stroke-linejoin:round;stroke-miterlimit:8;-inkscape-stroke:none;paint-order:markers fill stroke"
         d="m 5,1.765625 a 0.5,0.5 0 0 0 -0.5,0.5 v 7.0585938 a 0.5,0.5 0 0 0 0.5,0.5 0.5,0.5 0 0 0 0.5,-0.5 V 2.265625 a 0.5,0.5 0 0 0 -0.5,-0.5 z"
         id="path6350" />
    </g>
  </g>
</svg>
