<?xml version="1.0" encoding="UTF-8" standalone="no"?>
<!-- Created with Inkscape (http://www.inkscape.org/) -->

<svg
   width="700"
   height="700"
   viewBox="0 0 185.20833 185.20834"
   version="1.1"
   id="svg43682"
   inkscape:version="1.1.1 (3bf5ae0d25, 2021-09-20)"
   sodipodi:docname="InfoALeze.svg"
   xmlns:inkscape="http://www.inkscape.org/namespaces/inkscape"
   xmlns:sodipodi="http://sodipodi.sourceforge.net/DTD/sodipodi-0.dtd"
   xmlns="http://www.w3.org/2000/svg"
   xmlns:svg="http://www.w3.org/2000/svg"
   xmlns:rdf="http://www.w3.org/1999/02/22-rdf-syntax-ns#"
   xmlns:cc="http://creativecommons.org/ns#"
   xmlns:dc="http://purl.org/dc/elements/1.1/">
  <title
     id="title43840">InfoALeze</title>
  <sodipodi:namedview
     id="namedview43684"
     pagecolor="#ffffff"
     bordercolor="#666666"
     borderopacity="1.0"
     inkscape:pageshadow="2"
     inkscape:pageopacity="0.0"
     inkscape:pagecheckerboard="0"
     inkscape:document-units="mm"
     showgrid="false"
     units="px"
     inkscape:zoom="0.77771465"
     inkscape:cx="212.80299"
     inkscape:cy="561.25984"
     inkscape:window-width="2560"
     inkscape:window-height="1369"
     inkscape:window-x="-8"
     inkscape:window-y="-8"
     inkscape:window-maximized="1"
     inkscape:current-layer="layer1" />
  <defs
     id="defs43679">
    <filter
       style="color-interpolation-filters:sRGB"
       inkscape:label="Drop Shadow"
       id="filter41284-2"
       x="-0.091792546"
       y="-0.043996846"
       width="1.133478"
       height="1.1341282">
      <feFlood
         flood-opacity="0.498039"
         flood-color="rgb(87,87,87)"
         result="flood"
         id="feFlood41274-7" />
      <feComposite
         in="flood"
         in2="SourceGraphic"
         operator="in"
         result="composite1"
         id="feComposite41276-7" />
      <feGaussianBlur
         in="composite1"
         stdDeviation="0.3"
         result="blur"
         id="feGaussianBlur41278-0" />
      <feOffset
         dx="-1.8"
         dy="1.2"
         result="offset"
         id="feOffset41280-5" />
      <feComposite
         in="SourceGraphic"
         in2="offset"
         operator="over"
         result="composite2"
         id="feComposite41282-6" />
    </filter>
    <filter
       style="color-interpolation-filters:sRGB"
       inkscape:label="Drop Shadow"
       id="filter42454-4"
       x="-0.033040892"
       y="-0.026478318"
       width="1.0437569"
       height="1.0970872">
      <feFlood
         flood-opacity="0.501961"
         flood-color="rgb(59,59,59)"
         result="flood"
         id="feFlood42444-9" />
      <feComposite
         in="flood"
         in2="SourceGraphic"
         operator="in"
         result="composite1"
         id="feComposite42446-3" />
      <feGaussianBlur
         in="composite1"
         stdDeviation="0.1"
         result="blur"
         id="feGaussianBlur42448-1" />
      <feOffset
         dx="-0.5"
         dy="0.4"
         result="offset"
         id="feOffset42450-4" />
      <feComposite
         in="SourceGraphic"
         in2="offset"
         operator="over"
         result="composite2"
         id="feComposite42452-7" />
    </filter>
    <filter
       style="color-interpolation-filters:sRGB"
       inkscape:label="Drop Shadow"
       id="filter41254-8"
       x="-0.038224008"
       y="-0.043366064"
       width="1.0515809"
       height="1.140464">
      <feFlood
         flood-opacity="0.498039"
         flood-color="rgb(87,87,87)"
         result="flood"
         id="feFlood41244-2" />
      <feComposite
         in="flood"
         in2="SourceGraphic"
         operator="in"
         result="composite1"
         id="feComposite41246-6" />
      <feGaussianBlur
         in="composite1"
         stdDeviation="0.3"
         result="blur"
         id="feGaussianBlur41248-8" />
      <feOffset
         dx="-1.8"
         dy="1.2"
         result="offset"
         id="feOffset41250-8" />
      <feComposite
         in="SourceGraphic"
         in2="offset"
         operator="over"
         result="composite2"
         id="feComposite41252-7" />
    </filter>
  </defs>
  <g
     inkscape:label="Calque 1"
     inkscape:groupmode="layer"
     id="layer1">
    <g
       id="g43643"
       transform="matrix(1.6388125,0,0,1.6388125,-88.036891,-68.523205)">
      <path
         d="m 91.76555,108.15286 q 0,1.1273 -0.1492,2.30434 -0.13262,1.17704 -0.44761,2.28776 -0.31498,1.11073 -0.8289,2.10542 -0.51392,0.9781 -1.25993,1.72411 -0.74602,0.74601 -1.74069,1.17704 -0.97811,0.41445 -2.25461,0.41445 -0.6797,0 -1.25993,-0.1492 -0.58023,-0.16578 -1.02784,-0.46419 -0.44761,-0.2984 -0.76259,-0.76259 -0.29841,-0.48076 -0.41445,-1.09415 -0.66312,0.66312 -1.29309,1.14389 -0.61338,0.46418 -1.21019,0.76259 -0.59681,0.2984 -1.17704,0.43102 -0.56366,0.13263 -1.11073,0.13263 -0.71285,0 -1.25993,-0.13263 -0.54708,-0.1492 -0.97811,-0.41444 -0.41444,-0.28183 -0.71285,-0.67971 -0.2984,-0.39786 -0.49734,-0.89521 -0.19894,-0.49734 -0.28182,-1.09415 -0.0829,-0.59681 -0.0829,-1.29308 0,-0.71285 0.11604,-1.62465 0.11605,-0.92836 0.3813,-1.90647 0.26524,-0.97811 0.72943,-1.90647 0.46419,-0.94495 1.14388,-1.67438 0.69628,-0.74601 1.64123,-1.19362 0.94494,-0.46419 2.20487,-0.46419 0.5305,0 1.01126,0.13262 0.49735,0.11606 0.94495,0.3813 0.4476,0.26525 0.86206,0.66312 0.41445,0.39788 0.84547,0.94495 l 0.28184,-1.45887 q 0.0663,-0.23209 0.29839,-0.34813 0.2321,-0.11605 0.86207,-0.11605 0.2984,0 0.49734,0.0332 0.21551,0.0332 0.33155,0.0995 0.11605,0.0497 0.1492,0.13263 0.0497,0.0829 0.0165,0.19893 l -1.47545,7.62589 q -0.26524,1.44229 0.13263,2.13857 0.39787,0.6797 1.5086,0.6797 0.6797,0 1.22677,-0.33156 0.54708,-0.34814 0.96153,-0.92837 0.41445,-0.58023 0.69628,-1.34283 0.28182,-0.77916 0.46418,-1.62464 0.18236,-0.86206 0.26525,-1.75727 0.0829,-0.89521 0.0829,-1.72411 0,-1.44229 -0.39787,-2.73538 -0.3813,-1.30966 -1.32625,-2.28777 -0.94494,-0.99467 -2.53643,-1.5749 -1.57492,-0.59681 -3.96215,-0.59681 -1.95621,0 -3.48138,0.43102 -1.52518,0.43103 -2.68565,1.17704 -1.16046,0.72944 -1.98936,1.69096 -0.8289,0.96153 -1.40913,2.05568 -0.56366,1.07756 -0.91179,2.22145 -0.34814,1.1273 -0.5305,2.1883 -0.18235,1.04442 -0.24867,1.97278 -0.0497,0.92837 -0.0497,1.57492 0,1.84016 0.41446,3.36534 0.43103,1.52517 1.47544,2.6359 1.04441,1.11073 2.80168,1.72412 1.75728,0.61338 4.42634,0.61338 1.2102,0 2.1883,-0.1492 0.9781,-0.13262 1.69096,-0.29841 0.72943,-0.1492 1.17703,-0.2984 0.44761,-0.13262 0.61339,-0.13262 0.0995,0 0.16578,0.0497 0.0829,0.0663 0.11605,0.18235 0.0497,0.13262 0.0663,0.31499 0.0165,0.19893 0.0165,0.48075 0,0.2321 -0.0165,0.3813 0,0.1492 -0.0332,0.26525 -0.0332,0.13263 -0.0995,0.23209 -0.0497,0.0995 -0.1492,0.18236 -0.0995,0.0829 -0.58023,0.24867 -0.46419,0.16578 -1.2765,0.33156 -0.79575,0.16578 -1.87332,0.28183 -1.07757,0.11605 -2.37066,0.11605 -3.10009,0 -5.25523,-0.72944 -2.13857,-0.72944 -3.49797,-2.08883 -1.34281,-1.3594 -1.93962,-3.26587 -0.59681,-1.90648 -0.59681,-4.26056 0,-0.86205 0.0829,-1.97278 0.0995,-1.12731 0.34813,-2.38723 0.26525,-1.27651 0.72944,-2.58617 0.46418,-1.32624 1.19362,-2.58618 0.74601,-1.25993 1.79042,-2.37065 1.06099,-1.12731 2.48671,-1.95621 1.44228,-0.845482 3.28244,-1.326242 1.85674,-0.48076 4.19424,-0.48076 2.7188,0 4.69158,0.66312 1.98937,0.646542 3.28245,1.840162 1.29309,1.19362 1.92305,2.91773 0.62997,1.70753 0.62997,3.81295 z m -9.61526,1.07756 q -0.62996,-1.06099 -1.29308,-1.62464 -0.66312,-0.56365 -1.5086,-0.56365 -0.69628,0 -1.25993,0.34813 -0.56366,0.33157 -0.9781,0.87864 -0.41445,0.5305 -0.71286,1.2102 -0.28182,0.67969 -0.46418,1.39255 -0.18236,0.71285 -0.26525,1.39256 -0.0663,0.66312 -0.0663,1.17704 0,1.22677 0.43103,1.88989 0.44761,0.66312 1.49202,0.66312 0.39787,0 0.81232,-0.13262 0.41446,-0.14921 0.87864,-0.43103 0.46418,-0.29841 0.9781,-0.76259 0.5305,-0.48076 1.16046,-1.12731 z M 64.31234,99.449388 Z"
         id="path15478"
         style="font-size:37.7605px;line-height:1.25;font-family:Calibri;-inkscape-font-specification:'Calibri, Normal';fill:#ffffff;fill-opacity:1;stroke:#f59434;stroke-width:0.848797;stroke-opacity:1;filter:url(#filter41284-2)" />
      <g
         aria-label="Lèze"
         id="text20574"
         style="font-size:10.5833px;line-height:1.25;font-family:'Comic Sans MS';-inkscape-font-specification:'Comic Sans MS';fill:#70099a;fill-opacity:1;stroke:none;stroke-width:0.264583;stroke-opacity:1;filter:url(#filter42454-4)"
         transform="matrix(2.7776458,0,0,2.7776458,-620.30056,-268.78984)">
        <path
           d="m 262.57798,140.63723 q -0.58395,0.27389 -1.83451,0.49093 -1.15238,0.20154 -1.88102,0.20154 -0.52193,0 -0.7493,-0.1602 -0.31006,-0.21704 -0.31006,-0.79582 l 0.10335,-1.71048 q 0.13436,-2.36677 0.13436,-5.25031 0,-0.22221 0.14469,-0.37724 0.14986,-0.15502 0.3669,-0.15502 0.22221,0 0.36691,0.15502 0.14986,0.15503 0.14986,0.37724 0,2.91971 -0.13953,5.31232 l -0.0672,0.78548 q -0.0413,0.42891 -0.031,0.75964 1.34875,0.0155 3.41063,-0.63562 0.0879,-0.0258 0.16536,-0.0258 0.22221,0 0.37207,0.17569 0.12919,0.1602 0.12919,0.36691 0,0.33072 -0.33072,0.48575 z"
           id="path25162"
           style="fill:#70099a;fill-opacity:1;stroke:none;stroke-opacity:1" />
        <path
           d="m 266.24182,141.08682 q -1.16788,0 -1.89135,-0.58395 -0.79065,-0.64595 -0.79065,-1.80866 0,-1.34359 0.65113,-2.25309 0.70796,-0.99218 1.89135,-0.99218 0.85782,0 1.40042,0.28938 0.66663,0.35657 0.66663,1.09554 0,0.51676 -0.58394,0.94051 -0.25839,0.18603 -1.09554,0.57877 l -1.97403,0.93534 q 0.28938,0.42892 0.7183,0.64596 0.43408,0.21704 1.00768,0.21704 0.35657,0 0.83716,-0.13436 0.60978,-0.17053 0.78548,-0.44442 0.1757,-0.27905 0.37723,-0.27905 0.18087,0 0.3204,0.13953 0.14469,0.13435 0.14469,0.31522 0,0.57361 -0.925,0.98702 -0.79065,0.3514 -1.53996,0.3514 z m -0.13952,-4.70771 q -0.63045,0 -1.04903,0.49092 -0.41858,0.48576 -0.62528,1.46761 l 1.58646,-0.75447 q 0.93534,-0.45476 1.33325,-0.79065 -0.44442,-0.41341 -1.2454,-0.41341 z m 0.80615,-2.07739 q 0,0.18604 -0.14986,0.32556 -0.1447,0.13436 -0.33073,0.13436 -0.22221,0 -0.37207,-0.21704 l -0.51676,-0.76998 q -0.27389,-0.37723 -0.64079,-0.66145 -0.20154,-0.15503 -0.20154,-0.3669 0,-0.18604 0.13436,-0.33073 0.13953,-0.14986 0.32556,-0.14986 0.32039,0 1.04386,0.85782 0.70797,0.84749 0.70797,1.17822 z"
           id="path25164"
           style="fill:#70099a;fill-opacity:1;stroke:none;stroke-opacity:1" />
        <path
           d="m 273.88991,136.6685 q -0.45992,0.55293 -1.17822,1.60196 -0.83199,1.21956 -1.21956,1.72599 0.5426,-0.0258 0.94568,-0.0258 0.20154,0 0.59944,0.0775 0.39791,0.0775 0.59945,0.0775 0.22737,0 0.3669,0.14986 0.14469,0.14469 0.14469,0.37207 0,0.23254 -0.14469,0.37724 -0.13953,0.14469 -0.3669,0.14469 -0.20154,0 -0.59945,-0.0775 -0.3979,-0.0775 -0.59944,-0.0775 -1.16272,0 -2.20658,0.21187 -0.10852,0.0207 -0.1912,0.0207 -0.50126,0 -0.50126,-0.43925 0,-0.25838 0.25838,-0.49609 1.34875,-1.21956 2.93521,-3.7982 -0.68729,0.0413 -0.99735,0.0413 -0.76481,0 -1.57096,-0.11886 -0.45992,-0.0672 -0.45992,-0.51159 0,-0.22738 0.13953,-0.37724 0.13952,-0.15503 0.3514,-0.15503 0.25321,0 0.76481,0.062 0.51159,0.0568 0.77514,0.0568 0.3514,0 1.0542,-0.0465 0.70279,-0.0517 1.05419,-0.0517 0.43925,0 0.43925,0.36174 0,0.41857 -0.39274,0.894 z"
           id="path25166"
           style="fill:#70099a;fill-opacity:1;stroke:none;stroke-opacity:1" />
        <path
           d="m 277.73462,141.08682 q -1.16788,0 -1.89135,-0.58395 -0.79064,-0.64595 -0.79064,-1.80866 0,-1.34359 0.65112,-2.25309 0.70796,-0.99218 1.89135,-0.99218 0.85782,0 1.40043,0.28938 0.66662,0.35657 0.66662,1.09554 0,0.51676 -0.58394,0.94051 -0.25838,0.18603 -1.09554,0.57877 l -1.97403,0.93534 q 0.28938,0.42892 0.7183,0.64596 0.43408,0.21704 1.00768,0.21704 0.35657,0 0.83716,-0.13436 0.60978,-0.17053 0.78548,-0.44442 0.1757,-0.27905 0.37724,-0.27905 0.18086,0 0.32039,0.13953 0.14469,0.13435 0.14469,0.31522 0,0.57361 -0.925,0.98702 -0.79065,0.3514 -1.53996,0.3514 z m -0.13952,-4.70771 q -0.63045,0 -1.04903,0.49092 -0.41858,0.48576 -0.62528,1.46761 l 1.58646,-0.75447 q 0.93534,-0.45476 1.33325,-0.79065 -0.44442,-0.41341 -1.2454,-0.41341 z"
           id="path25168"
           style="fill:#70099a;fill-opacity:1;stroke:none;stroke-opacity:1" />
      </g>
      <path
         style="fill:#9ab75a;stroke:#def3da;stroke-width:0.497;stroke-miterlimit:4;stroke-dasharray:none;stroke-opacity:1;filter:url(#filter41254-8)"
         d="m 133.5691,92.622088 c -0.16112,-0.0544 -0.29298,-0.55475 -0.29298,-1.11196 0,-0.96017 -0.0542,-1.01312 -1.03782,-1.01312 h -1.03783 v -5.33742 c 0,-2.93558 -0.002,-5.4375 -0.007,-5.55982 -0.003,-0.12231 0.46362,-0.2638 1.03783,-0.31442 1.00211,-0.0883 1.04402,-0.13893 1.04402,-1.26022 v -1.1682 h 5.63395 5.63394 v 0.71706 c 0,1.28765 0.30331,1.65513 1.36607,1.65513 h 1.00612 v 5.61604 5.61605 l -1.11196,0.092 c -1.01176,0.0837 -1.12026,0.17773 -1.20394,1.04293 l -0.092,0.9509 -5.32311,0.0869 c -2.92771,0.0478 -5.45497,0.0424 -5.61611,-0.0119 z m 8.60272,-7.75903 v -5.33742 l -0.81543,-0.0412 c -0.7917,-0.04 -4.5902,-0.0267 -5.33742,0.0187 -0.2814,0.0171 -0.37065,1.26016 -0.37065,5.16226 0,2.82686 0.089,5.2287 0.19768,5.33742 0.10871,0.10873 1.57651,0.19768 3.26176,0.19768 l 3.06406,1e-5 z m -67.69046,6.91296 c -0.23013,-1.20382 0.0429,-1.57554 1.15719,-1.57554 h 1.01058 l -0.0786,-8.6733 -0.0786,-8.67331 -0.96371,-0.0929 c -0.90831,-0.0876 -0.96369,-0.16001 -0.96369,-1.26023 v -1.1673 h 4.44785 4.44785 v 1.18609 c 0,1.15785 -0.0247,1.1861 -1.03784,1.1861 h -1.03783 v 8.72865 8.72865 l 0.9637,0.0929 c 0.87981,0.0848 0.97171,0.18971 1.05573,1.20488 l 0.092,1.11196 H 79.0649 74.63372 Z m 18.10275,-5.64036 -0.0799,-6.46176 -1.03784,-0.14826 c -0.98842,-0.1412 -1.03783,-0.20474 -1.03783,-1.33435 v -1.1861 l 2.27944,-0.0863 2.27943,-0.0863 0.0928,1.12411 c 0.0851,1.0307 0.16666,1.1241 0.98233,1.1241 0.8139,0 0.8974,-0.0946 0.98161,-1.11197 l 0.092,-1.11196 h 3.39212 3.39211 v 1.18609 c 0,1.15786 0.0247,1.1861 1.03784,1.1861 h 1.03783 v 6.67177 6.67178 h -2.22393 -2.22392 v -6.48645 -6.48645 l -0.85858,-0.17171 c -1.08404,-0.21681 -3.07278,0.0865 -3.37102,0.51409 -0.12459,0.17864 -0.20888,3.06023 -0.18732,6.40353 l 0.0392,6.07873 -2.25319,0.0865 -2.2532,0.0865 z m 20.46459,5.91809 c -0.0591,-0.2854 -0.0532,-0.81914 0.0129,-1.18609 0.0968,-0.538 0.31598,-0.66718 1.13155,-0.66718 h 1.01142 l -0.0823,-4.22545 -0.0823,-4.22546 -1.03783,-0.14826 c -0.96018,-0.13717 -1.03783,-0.22592 -1.03783,-1.1861 0,-0.96017 0.0777,-1.04892 1.03783,-1.18609 l 1.03783,-0.14826 0.0838,-3.33068 c 0.0738,-2.93711 0.14396,-3.32575 0.59303,-3.28891 1.33661,0.10964 1.54709,-0.0387 1.54709,-1.09002 v -1.03783 h 3.55828 3.55828 v 1.03783 c 0,0.98841 0.0494,1.03783 1.03783,1.03783 h 1.03784 v 2.37219 2.37219 h -1.1861 c -1.15785,0 -1.18609,-0.0247 -1.18609,-1.03784 0,-0.98841 -0.0494,-1.03783 -1.03783,-1.03783 -0.89998,0 -1.03783,-0.0952 -1.03783,-0.71705 0,-1.23037 -0.31254,-1.65513 -1.21782,-1.65513 h -0.85785 v 3.26175 3.26176 h 1.03784 c 1.01312,0 1.03783,0.0282 1.03783,1.18609 0,1.15786 -0.0247,1.1861 -1.03783,1.1861 h -1.03784 v 4.2808 4.2808 l 0.9637,0.0929 c 0.87981,0.0848 0.97171,0.18971 1.05573,1.20488 l 0.092,1.11196 h -4.444 c -3.99383,0 -4.45488,-0.0526 -4.55134,-0.51892 z"
         id="path866-2-3" />
    </g>
  </g>
  <metadata
     id="metadata43838">
    <rdf:RDF>
      <cc:Work
         rdf:about="">
        <dc:title>InfoALeze</dc:title>
      </cc:Work>
    </rdf:RDF>
  </metadata>
</svg>
