<?xml version="1.0" encoding="UTF-8" standalone="no"?>
<!-- Created with Inkscape (http://www.inkscape.org/) -->

<svg
   width="100mm"
   height="125mm"
   viewBox="0 0 100 125"
   version="1.1"
   id="svg2270"
   xml:space="preserve"
   sodipodi:docname="chick_help.svg"
   inkscape:version="1.2.2 (732a01da63, 2022-12-09)"
   xmlns:inkscape="http://www.inkscape.org/namespaces/inkscape"
   xmlns:sodipodi="http://sodipodi.sourceforge.net/DTD/sodipodi-0.dtd"
   xmlns="http://www.w3.org/2000/svg"
   xmlns:svg="http://www.w3.org/2000/svg"><sodipodi:namedview
     id="namedview2272"
     pagecolor="#ffffff"
     bordercolor="#000000"
     borderopacity="0.25"
     inkscape:showpageshadow="2"
     inkscape:pageopacity="0.0"
     inkscape:pagecheckerboard="0"
     inkscape:deskcolor="#d1d1d1"
     inkscape:document-units="mm"
     showgrid="false"
     inkscape:zoom="1.0582793"
     inkscape:cx="-61.420459"
     inkscape:cy="239.53979"
     inkscape:window-width="1920"
     inkscape:window-height="1009"
     inkscape:window-x="-8"
     inkscape:window-y="-8"
     inkscape:window-maximized="1"
     inkscape:current-layer="layer1" /><defs
     id="defs2267" /><g
     inkscape:label="Layer 1"
     inkscape:groupmode="layer"
     id="layer1"
     transform="translate(-58.524088,-19.751076)"><g
       id="g3034"
       transform="translate(2.081157,2.194815)"
       style="stroke:#808080;stroke-dasharray:1, 3;stroke-dashoffset:0"><path
         style="fill:none;stroke:#808080;stroke-width:1;stroke-linecap:round;stroke-linejoin:round;stroke-miterlimit:8;paint-order:markers fill stroke;stroke-dasharray:1, 3;stroke-dashoffset:0"
         d="m 100.32589,115.61786 -0.707142,11.66785 c 9.151142,13.41783 -4.419642,19.3933 -2.651786,1.06072 -1.767856,13.18448 -15.467148,12.93151 -4.684821,1.14911 -14.049654,3.6237 -9.785354,-6.72056 2.916965,-4.41965 l -0.883928,-9.72321 c 2.622818,-1.92416 4.306026,-0.79459 6.010712,0.26518 z"
         id="path2942"
         sodipodi:nodetypes="ccccccc" /><path
         style="fill:none;stroke:#808080;stroke-width:1;stroke-linecap:round;stroke-linejoin:round;stroke-miterlimit:8;paint-order:markers fill stroke;stroke-dasharray:1, 3;stroke-dashoffset:0"
         d="m 112.09309,115.61786 0.70714,11.66785 c -9.15114,13.41783 4.41964,19.3933 2.65178,1.06072 1.76786,13.18448 15.46715,12.93151 4.68483,1.14911 14.04965,3.6237 9.78535,-6.72056 -2.91697,-4.41965 l 0.88393,-9.72321 c -2.62282,-1.92416 -4.30603,-0.79459 -6.01071,0.26518 z"
         id="path2942-3"
         sodipodi:nodetypes="ccccccc" /><path
         id="path2692"
         style="fill:none;stroke:#808080;stroke-width:1;stroke-linecap:round;stroke-linejoin:round;stroke-miterlimit:8;paint-order:markers fill stroke;stroke-dasharray:1, 3;stroke-dashoffset:0"
         d="m 98.255012,64.378284 c 7.204878,8.495647 12.152308,5.954851 16.375838,-0.125005 m -16.375838,0.125005 c 3.997418,-4.874367 12.504648,-4.905943 16.375838,-0.125005 -2.31512,11.720821 -12.893,11.857245 -16.375838,0.125005 z" /><ellipse
         style="fill:none;stroke:#808080;stroke-width:1;stroke-linecap:round;stroke-linejoin:round;stroke-miterlimit:8;paint-order:markers fill stroke;stroke-dasharray:1, 3;stroke-dashoffset:0"
         id="path2747"
         cx="100.38012"
         cy="55.830971"
         rx="1.9688504"
         ry="3.4845529" /><ellipse
         style="fill:none;stroke:#808080;stroke-width:1;stroke-linecap:round;stroke-linejoin:round;stroke-miterlimit:8;paint-order:markers fill stroke;stroke-dasharray:1, 3;stroke-dashoffset:0"
         id="path2747-4"
         cx="112.84951"
         cy="55.87785"
         rx="1.9688504"
         ry="3.4845529" /><path
         style="fill:none;stroke:#808080;stroke-width:1;stroke-linecap:round;stroke-linejoin:round;stroke-miterlimit:8;paint-order:markers fill stroke;stroke-dasharray:1, 3;stroke-dashoffset:0"
         d="m 84.504309,60.253072 c 5.757715,-1.326013 9.007844,0.779409 11.625593,3.750191"
         id="path2825"
         sodipodi:nodetypes="cc" /><path
         style="fill:none;stroke:#808080;stroke-width:1;stroke-linecap:round;stroke-linejoin:round;stroke-miterlimit:8;paint-order:markers fill stroke;stroke-dasharray:1, 3;stroke-dashoffset:0"
         d="m 128.50655,60.325816 c -5.75772,-1.326013 -9.00785,0.779409 -11.62559,3.750191"
         id="path2825-8"
         sodipodi:nodetypes="cc" /><path
         style="fill:none;stroke:#808080;stroke-width:1;stroke-linecap:round;stroke-linejoin:round;stroke-miterlimit:8;paint-order:markers fill stroke;stroke-dasharray:1, 3;stroke-dashoffset:0"
         d="m 123.28394,71.771649 c 29.37095,10.43371 41.33306,25.586505 19.02856,20.864065 6.91491,6.459535 0,10.128146 -6.54107,5.657141 1.62243,4.589775 -1.03561,7.831175 -5.19836,6.220975"
         id="path2864"
         sodipodi:nodetypes="cccc" /><path
         style="fill:none;stroke:#808080;stroke-width:1;stroke-linecap:round;stroke-linejoin:round;stroke-miterlimit:8;paint-order:markers fill stroke;stroke-dasharray:1, 3;stroke-dashoffset:0"
         d="m 89.601922,71.771649 c -29.37095,10.43371 -41.33306,25.586505 -19.02856,20.864065 -6.91491,6.459535 0,10.128146 6.54107,5.657141 -1.62243,4.589775 1.03561,7.831175 5.19836,6.220975"
         id="path2864-5"
         sodipodi:nodetypes="cccc" /><path
         style="fill:none;stroke:#808080;stroke-width:1;stroke-linecap:round;stroke-linejoin:round;stroke-miterlimit:8;paint-order:markers fill stroke;stroke-dasharray:1, 3;stroke-dashoffset:0"
         d="m 102.84897,29.751517 c -1.14469,-3.526344 -2.75,-7.107339 5.65656,-9.500484 -4.69043,5.520637 -0.43928,7.568813 3.18253,9.861392"
         id="path3020"
         sodipodi:nodetypes="ccc" /><circle
         style="fill:none;stroke:#808080;stroke-width:1.11106;stroke-linecap:round;stroke-linejoin:round;stroke-miterlimit:8;paint-order:markers fill stroke;stroke-dasharray:1, 3;stroke-dashoffset:0"
         id="path2455"
         cx="106.5"
         cy="54"
         r="24.444471" /><path
         id="path2455-0"
         style="fill:none;stroke:#808080;stroke-width:1.11106;stroke-linecap:round;stroke-linejoin:round;stroke-miterlimit:8;paint-order:markers fill stroke;stroke-dasharray:1, 3;stroke-dashoffset:0"
         d="m 120.70717,73.891918 c 0,0 11.61781,7.144264 11.61781,21.300442 0,14.15618 -11.50383,25.63203 -25.69453,25.63203 -14.190701,0 -25.694538,-11.47585 -25.694539,-25.63203 0,-14.156182 11.396565,-21.272183 11.396565,-21.272183"
         sodipodi:nodetypes="csssc" /></g></g></svg>
